<svg xmlns="http://www.w3.org/2000/svg" viewBox="0 0 64 64" enable-background="new 0 0 64 64"><style type="text/css">.st0{fill:#1D1D1B;}</style><path class="st0" d="M46.1 30.2h-11.8v-11.8c0-1.1-.9-1.9-1.9-1.9-1.1 0-1.9.9-1.9 1.9v11.7h-11.8c-1.1 0-1.9.9-1.9 1.9s.9 1.9 1.9 1.9h11.7v11.7c0 1.1.9 1.9 1.9 1.9 1.1 0 1.9-.9 1.9-1.9v-11.6h11.8c1.1 0 1.9-.9 1.9-1.9s-.7-1.9-1.8-1.9zm-14.1-29.2c-17.1 0-31 13.9-31 31s13.9 31 31 31 31-14 31-31-14-31-31-31zm0 58.1c-14.9 0-27.1-12.2-27.1-27.1s12.2-27.1 27.1-27.1 27.1 12.2 27.1 27.1-12.2 27.1-27.1 27.1z"/></svg>