<svg xmlns="http://www.w3.org/2000/svg" viewBox="0 0 426.667 426.667" enable-background="new 0 0 426.667 426.667"><path d="M106.667 181.333h42.667v42.667h-42.667zM192 181.333h42.667v42.667h-42.667zM277.333 181.333h42.667v42.667h-42.667zM106.667 266.667h42.667v42.667h-42.667zM192 266.667h42.667v42.667h-42.667zM277.333 266.667h42.667v42.667h-42.667zM362.667 53.333v-42.666h-42.667v42.667h-42.667v-42.667h-42.667v42.667h-42.666v-42.667h-42.667v42.667h-42.667v-42.667h-42.666v42.667h-64v362.666h426.667v-362.667h-64zm21.333 320h-341.333v-277.333h21.333v21.333h42.667v-21.333h42.667v21.333h42.666v-21.333h42.667v21.333h42.667v-21.333h42.666v21.333h42.667v-21.333h21.333v277.333z"/></svg>