<svg xmlns="http://www.w3.org/2000/svg" viewBox="0 0 330 330" enable-background="new 0 0 330 330"><path d="M240 121.076v-31.076h15c8.284 0 15-6.716 15-15s-6.716-15-15-15h-45v-45c0-8.284-6.716-15-15-15h-120c-8.284 0-15 6.716-15 15v45h-45c-8.284 0-15 6.716-15 15s6.716 15 15 15h15v185c0 8.284 6.716 15 15 15h97.596c19.246 24.347 49.031 40 82.404 40 57.897 0 105-47.103 105-105 0-52.805-39.183-96.623-90-103.924zm-150-91.076h90v30h-90v-30zm15 230h-45v-170h150v31.076c-50.817 7.301-90 51.119-90 103.924 0 12.268 2.122 24.047 6.006 35h-21.006zm120 40c-41.355 0-75-33.645-75-75s33.645-75 75-75 75 33.645 75 75-33.645 75-75 75zm31.819-106.819c-5.857-5.857-15.355-5.857-21.213 0l-10.606 10.606-10.606-10.606c-5.857-5.857-15.355-5.857-21.213 0-5.858 5.857-5.858 15.355 0 21.213l10.606 10.606-10.606 10.606c-5.858 5.857-5.858 15.355 0 21.213 2.929 2.929 6.768 4.394 10.606 4.394s7.678-1.465 10.606-4.394l10.607-10.606 10.606 10.606c2.929 2.929 6.768 4.394 10.606 4.394s7.678-1.465 10.606-4.394c5.858-5.857 5.858-15.355 0-21.213l-10.605-10.606 10.606-10.606c5.859-5.858 5.859-15.356 0-21.213z"/></svg>