<svg xmlns="http://www.w3.org/2000/svg" viewBox="0 0 285.499 285.499" enable-background="new 0 0 285.499 285.499"><path d="M162.936 155.5c-8.643 0-17.064.965-25.166 2.781-14.256-13.144-32.943-20.532-52.585-20.532-42.801 0-77.622 34.822-77.622 77.623 0 8.284 6.716 15 15 15h32.602c-4.669 12.499-7.229 26.019-7.229 40.127 0 8.284 6.716 15 15 15h200c8.284 0 15-6.716 15-15 0-63.411-51.589-114.999-115-114.999zm-122.953 44.872c6.298-18.934 24.181-32.623 45.202-32.623 6.617 0 13.052 1.382 18.964 3.95-12.484 7.457-23.442 17.21-32.29 28.673h-31.876zm39.278 55.127c7.106-39.739 41.923-69.999 83.675-69.999 41.751 0 76.569 30.26 83.675 69.999h-167.35zM85.185 107.749c9.942 0 19.138-3.247 26.593-8.728 11.382 16.007 30.064 26.479 51.158 26.479 34.601 0 62.75-28.149 62.75-62.75s-28.149-62.75-62.75-62.75c-21.093 0-39.774 10.472-51.157 26.478-7.456-5.481-16.651-8.729-26.594-8.729-24.813 0-45 20.188-45 45.001s20.187 44.999 45 44.999zm77.751-77.749c18.059 0 32.75 14.691 32.75 32.75s-14.691 32.75-32.75 32.75-32.751-14.691-32.751-32.75 14.692-32.75 32.751-32.75zm-77.751 17.749c8.271 0 15 6.729 15 15.001 0 8.271-6.729 14.999-15 14.999s-15-6.729-15-14.999c0-8.271 6.729-15.001 15-15.001z"/></svg>