<svg width="64" xmlns="http://www.w3.org/2000/svg" height="64" viewBox="0 0 64 64"><path d="M58.969 31.772c-8.087 9.937-16.384 15.509-24.675 16.541-1.104.137-1.888 1.143-1.75 2.248.127 1.019.995 1.766 1.996 1.766l.252-.016c9.729-1.21 19.267-7.702 28.352-19.296l.098-.194.139-.275c.059-.139.109-.273.136-.42.023-.122.025-.241.025-.366 0-.123-.002-.24-.025-.36-.026-.147-.078-.284-.138-.425l-.136-.271-.099-.196c-3.539-4.517-7.186-8.301-10.838-11.25-.864-.694-2.132-.563-2.833.303-.698.866-.562 2.133.303 2.833 3.075 2.482 6.162 5.654 9.193 9.378zm-58.927.158c.04.431.213.828.513 1.157 2.141 3.783 10.433 13.904 21.602 17.815l-1.152 2.062c-.543.971-.195 2.198.777 2.74.311.174.647.256.98.256.706 0 1.392-.372 1.761-1.033l23.839-42.694c.543-.971.195-2.198-.777-2.74-.971-.547-2.2-.196-2.741.777l-1.816 3.254c-10.137-4.415-20.622-2.979-30.432 4.221-7.624 5.595-12.1 12.635-12.287 12.932l-.075.198-.114.299c-.044.147-.079.29-.089.44l-.031.157.042.159zm31.744-14.724c2.827 0 5.509.938 7.705 2.649l-12.107 21.681c-4.826-1.81-8.169-6.473-8.169-11.759 0-6.932 5.639-12.571 12.571-12.571zm-11.48.61c-3.148 3.023-5.12 7.262-5.12 11.961 0 6.769 4.149 12.777 10.213 15.314l-1.236 2.213c-10.218-3.258-17.492-12.438-19.713-15.545 1.94-2.705 7.667-9.946 15.856-13.943z" fill="#1D1D1B"/></svg>