<svg xmlns="http://www.w3.org/2000/svg" viewBox="0 0 60 44"><title>ico-creditcard</title><g><path d="M55.78 0h-51.56a4.22 4.22 0 0 0-4.22 4.22v35.56a4.22 4.22 0 0 0 4.22 4.22h51.56a4.22 4.22 0 0 0 4.22-4.22v-35.56a4.22 4.22 0 0 0-4.22-4.22zm-52.78 8a1 1 0 0 0 1-1h4a1 1 0 0 0 2 0h4a1 1 0 0 0 2 0h4a1 1 0 0 0 2 0h4a1 1 0 0 0 2 0h4a1 1 0 0 0 2 0h4a1 1 0 0 0 2 0h4a1 1 0 0 0 2 0h4a1 1 0 0 0 2 0h4a1 1 0 0 0 2 0v6a1 1 0 0 0-2 0h-4a1 1 0 0 0-2 0h-4a1 1 0 0 0-2 0h-4a1 1 0 0 0-2 0h-4a1 1 0 0 0-2 0h-4a1 1 0 0 0-2 0h-4a1 1 0 0 0-2 0h-4a1 1 0 0 0-2 0h-4a1 1 0 0 0-2 0h-4a1 1 0 0 0-2 0v-6a1 1 0 0 0 1 1zm55 31.78a2.22 2.22 0 0 1-2.22 2.22h-51.56a2.22 2.22 0 0 1-2.22-2.22v-24.78h56zm-56-34.78v-.78a2.22 2.22 0 0 1 2.22-2.22h51.56a2.22 2.22 0 0 1 2.22 2.22v.78zM8 21h8a1 1 0 0 0 0-2h-8a1 1 0 0 0 0 2zM20 21h8a1 1 0 0 0 0-2h-8a1 1 0 0 0 0 2zM8 26h1a1 1 0 0 0 0-2h-1a1 1 0 0 0 0 2zM15 24h-2a1 1 0 0 0 0 2h2a1 1 0 0 0 0-2zM19 26h1a1 1 0 0 0 0-2h-1a1 1 0 0 0 0 2zM26 24h-2a1 1 0 0 0 0 2h2a1 1 0 0 0 0-2zM29.29 25.71a1 1 0 1 0-.29-.71 1 1 0 0 0 .29.71zM47 24a1 1 0 0 0 0 2h1a1 1 0 0 0 0-2zM51.29 24.29a1 1 0 1 0 1.42 0 1.05 1.05 0 0 0-1.42 0zM32 21h8a1 1 0 0 0 0-2h-8a1 1 0 0 0 0 2zM44 21h8a1 1 0 0 0 0-2h-8a1 1 0 0 0 0 2zM34 26h5a1 1 0 0 0 0-2h-5a1 1 0 0 0 0 2zM43 26a1 1 0 1 0-.71-.29 1.05 1.05 0 0 0 .71.29zM37.7 29.4c-2.19 1.14-2.93 3.32-3.2 5.58l-1.24-1c-1-.82-2.4.59-1.41 1.41l2.81 2.35a1 1 0 0 0 1.7-.74c.07-2.17.17-4.74 2.35-5.87 1.14-.6.13-2.32-1.01-1.73zM38.7 34.08c1.87 2 4.28 1.41 6.4.26a3.29 3.29 0 0 0 1.84 1.08c.79.16 4-1.14 4.2-.9.75 1 2.49 0 1.73-1a2.31 2.31 0 0 0-1.87-1.15c-1.46-.09-3.59 2.15-4.72.15a1 1 0 0 0-1.37-.36c-1.42.87-3.27 2.12-4.76.5-.91-.94-2.32.47-1.45 1.42z"/><circle cx="42" cy="10" r="1"/><circle cx="48" cy="10" r="1"/><circle cx="24" cy="10" r="1"/><circle cx="30" cy="10" r="1"/><circle cx="36" cy="10" r="1"/><circle cx="54" cy="10" r="1"/><circle cx="18" cy="10" r="1"/><circle cx="6" cy="10" r="1"/><circle cx="12" cy="10" r="1"/></g></svg>