<svg xmlns="http://www.w3.org/2000/svg" viewBox="0 0 438.53 438.54"><title>ico-instagram</title><path d="M422 16.56q-16.58-16.56-39.7-16.56h-326.05q-23.13 0-39.69 16.56t-16.56 39.68v326q0 23.17 16.56 39.76t39.69 16.56h326q23.12 0 39.68-16.56t16.56-39.68v-326q.04-23.2-16.49-39.76zm-264.54 141.44q25.84-25 62.1-25 36.54 0 62.38 25t25.84 60.39q0 35.4-25.84 60.38t-62.38 25q-36.26 0-62.1-25t-25.84-60.38q0-35.39 25.84-60.39zm231.4 212.56a16.63 16.63 0 0 1-5.14 12.44 17 17 0 0 1-12.28 5h-305.2a17.07 17.07 0 0 1-17.42-17.41v-185h40.26a122.94 122.94 0 0 0-5.71 37.41q0 54.83 40 93.51t96.22 38.68a137.24 137.24 0 0 0 68.53-17.7 133.31 133.31 0 0 0 49.68-48.11 126.51 126.51 0 0 0 18.2-66.38 123 123 0 0 0-5.71-37.4h38.55v185zm0-255a19.51 19.51 0 0 1-19.71 19.7h-49.67a19.5 19.5 0 0 1-19.7-19.7v-47.04a19.17 19.17 0 0 1 5.71-13.85 18.8 18.8 0 0 1 14-5.85h49.68a18.78 18.78 0 0 1 14 5.85 19.15 19.15 0 0 1 5.72 13.85z"/></svg>