<svg xmlns="http://www.w3.org/2000/svg" viewBox="0 0 56.42 60"><title>ico-timer</title><g><path d="M29.84 38a3.56 3.56 0 0 0 2.61-1.46l9.36-12.94a1 1 0 0 0-1.4-1.4l-12.94 9.36a3.56 3.56 0 0 0 2.09 6.44zm-1.84-3.69a1.56 1.56 0 0 1 .64-1.14l7.9-5.71-5.71 7.89a1.56 1.56 0 0 1-2.82-1zM52.24 19.56v-.06a27.19 27.19 0 0 0-3.56-4.81l2.15-2.15 1.41 1.41 4.24-4.24-4.31-4.29-4.24 4.25 1.42 1.41-2.15 2.15a27.15 27.15 0 0 0-4.81-3.57h-.06a26.81 26.81 0 0 0-10.33-3.47v-1.19h1.5a2.5 2.5 0 1 0 0-5h-9a2.5 2.5 0 0 0 0 5h1.5v1.16a27.5 27.5 0 0 0-3.22.53 1 1 0 0 0 .45 1.95 25.43 25.43 0 0 1 2.77-.48l1.07-.08.93-.08v2a1 1 0 0 0 2 0v-2a24.81 24.81 0 0 1 10.46 2.85l-1 1.71a1 1 0 1 0 1.73 1l1-1.7a25.19 25.19 0 0 1 7.81 7.79l-1.7 1a1 1 0 0 0 1 1.73l1.71-1a24.82 24.82 0 0 1 2.8 10.62h-2a1 1 0 0 0 0 2h2a24.82 24.82 0 0 1-2.81 10.62l-1.71-1a1 1 0 1 0-1 1.73l1.7 1a25.19 25.19 0 0 1-7.77 7.77l-1-1.7a1 1 0 1 0-1.73 1l1 1.71a24.81 24.81 0 0 1-10.49 2.87v-2a1 1 0 0 0-2 0v2a25.23 25.23 0 0 1-4.78-.62 1 1 0 1 0-.45 1.95 27 27 0 0 0 6.06.69h.17a26.83 26.83 0 0 0 13.22-3.57h.09a27.2 27.2 0 0 0 9.77-9.76l.06-.08v-.06a26.9 26.9 0 0 0 0-26.87zm-.07-11.31l1.41 1.41-1.41 1.41-1.41-1.41zm-24.17-2.25v-3h-3.5a.5.5 0 0 1 0-1h9a.5.5 0 0 1 0 1h-3.5v3h-2zM20 14h-5a1 1 0 0 0 0 2h5a1 1 0 0 0 0-2zM20 21h-10a1 1 0 0 0 0 2h10a1 1 0 0 0 0-2zM20 28h-15a1 1 0 0 0 0 2h15a1 1 0 0 0 0-2zM20 35h-19a1 1 0 0 0 0 2h19a1 1 0 0 0 0-2zM20 42h-13a1 1 0 0 0 0 2h13a1 1 0 0 0 0-2zM20 49h-7a1 1 0 0 0 0 2h7a1 1 0 0 0 0-2z"/></g></svg>