<svg xmlns="http://www.w3.org/2000/svg" viewBox="0 0 81.95 58.21"><title>ico-winner</title><g><path d="M52.64 30.82a1 1 0 0 0-.77-.65l-6.93-1-3.1-6.28a1 1 0 0 0-1.72 0l-3.12 6.27-6.93 1a1 1 0 0 0-.53 1.64l5 4.89-1.18 6.9a1 1 0 0 0 1.39 1l6.25-3.24 6.2 3.26a1 1 0 0 0 1-.07 1 1 0 0 0 .38-.94l-1.18-6.9 5-4.89a1 1 0 0 0 .24-1zm-7 4.85a1 1 0 0 0-.28.85l.98 5.48-4.92-2.59a1 1 0 0 0-.89 0l-4.92 2.59.94-5.48a1 1 0 0 0-.28-.85l-4-3.88 5.5-.8a1 1 0 0 0 .72-.53l2.46-5 2.46 5a1 1 0 0 0 .72.53l5.5.8zM27.3 56.45a30.58 30.58 0 0 1-4.76-3.89 30 30 0 0 1-7.08-11.15l-.12-.34.34-.13a12.91 12.91 0 0 0 7.7-15.58 1 1 0 0 0-1.19-.65 12.76 12.76 0 0 0-7.66 6.16l-.83 1.64v-1.52a30.46 30.46 0 0 1 1.25-8.53l.1-.35.35.09a12.84 12.84 0 0 0 15.26-8.2 1 1 0 0 0-.58-1.23 12.77 12.77 0 0 0-9.77.49l-1.39.74.93-1.22a30.44 30.44 0 0 1 2.68-3.07 1 1 0 0 0-1.36-1.36c-.66.66-1.31 1.37-1.93 2.11l-.63.75v-1a12.76 12.76 0 0 0-5.38-10 1 1 0 0 0-.74-.21 1 1 0 0 0-.62.39 12.84 12.84 0 0 0 2.41 17.45l.22.18-.11.26a32.27 32.27 0 0 0-1.14 3.06l-.3.94-.4-.9a13.2 13.2 0 0 0-.89-1.66 12.76 12.76 0 0 0-8-5.66 1 1 0 0 0-.72.13 1 1 0 0 0-.42.6 12.85 12.85 0 0 0 9 15.16l.28.08v.29a32.61 32.61 0 0 0 .17 4.19l.1 1-.72-.64c-.3-.27-.62-.52-.94-.77a12.75 12.75 0 0 0-9.59-2.36 1 1 0 0 0-.82 1.09 12.85 12.85 0 0 0 12.68 10.91c.42 0 .86 0 1.31-.07h.27l.11.25a32.18 32.18 0 0 0 1.87 3.67l.5.85-.94-.3a12.81 12.81 0 0 0-12.08 2.26 1 1 0 0 0-.13 1.35 12.76 12.76 0 0 0 8.67 4.64 13 13 0 0 0 1.3.06 12.71 12.71 0 0 0 7.38-2.35l.26-.18.22.22a32.53 32.53 0 0 0 4.83 3.91 1 1 0 0 0 1.33-.27 1 1 0 0 0-.28-1.33zm-6.21-41.4a10.81 10.81 0 0 1 6.91-.83l.48.1-.23.44a11 11 0 0 1-9.72 5.92 10.85 10.85 0 0 1-2.21-.23l-.48-.1.22-.44a10.81 10.81 0 0 1 5.03-4.85zm-9.53-5.38a10.81 10.81 0 0 1 1.09-6.88l.23-.44.36.34a11 11 0 0 1 2.2 13l-.23.44-.36-.34a10.81 10.81 0 0 1-3.29-6.12zm.14 17.87v.49l-.46-.17a11 11 0 0 1-7.13-11.16v-.49l.46.17a10.8 10.8 0 0 1 5.43 4.39 10.81 10.81 0 0 1 1.69 6.77zm1.18 14.28h-.18a10.94 10.94 0 0 1-10.47-7.82l-.14-.47h.67a11 11 0 0 1 10.47 7.83l.14.47zm2.12-3.18a10.93 10.93 0 0 1 6.35-11.59l.45-.2.07.49a11 11 0 0 1-6.34 11.59l-.45.2zm4.26 14.28a10.78 10.78 0 0 1-5.68 1.61q-.55 0-1.11-.06a10.8 10.8 0 0 1-6.35-2.87l-.36-.34.39-.26a11 11 0 0 1 13.15 1.33l.36.34zM76.85 41.24a12.76 12.76 0 0 0 5.09-8.41 1 1 0 0 0-.8-1.09 12.81 12.81 0 0 0-10.49 3.12l-.72.65.1-1a32.52 32.52 0 0 0 .17-4.2v-.31l.28-.08a12.84 12.84 0 0 0 9-15.16 1 1 0 0 0-1.15-.73 12.76 12.76 0 0 0-8 5.66 13 13 0 0 0-.89 1.66l-.4.9-.3-.94a32.06 32.06 0 0 0-1.14-3.06l-.15-.25.22-.18a12.85 12.85 0 0 0 2.42-17.42 1 1 0 0 0-1.34-.22 12.76 12.76 0 0 0-5.22 8.33 13 13 0 0 0-.17 1.67v1l-.62-.75c-.62-.74-1.26-1.44-1.92-2.1a1 1 0 0 0-1.36 1.36 30.74 30.74 0 0 1 2.68 3.07l.86 1.24-1.39-.66a12.76 12.76 0 0 0-9.77-.49 1 1 0 0 0-.55 1.15 12.84 12.84 0 0 0 15.29 8.16l.35-.09.1.35a30.48 30.48 0 0 1 1.26 8.58v1.56l-.72-1.39a12.72 12.72 0 0 0-7.81-6.46 1 1 0 0 0-1.19.65 12.84 12.84 0 0 0 7.7 15.59l.34.13-.12.35a30 30 0 0 1-7.08 11.15 30.63 30.63 0 0 1-4.76 3.89 1 1 0 0 0-.27 1.33 1 1 0 0 0 1.33.27 32.52 32.52 0 0 0 4.83-3.91l.22-.22.26.18a12.85 12.85 0 0 0 17.34-2.36 1 1 0 0 0-.13-1.35 12.76 12.76 0 0 0-9.41-2.84 13 13 0 0 0-2.66.55l-.94.3.5-.85a31.9 31.9 0 0 0 1.86-3.66l.11-.25h.27a13.08 13.08 0 0 0 1.31.07 12.72 12.72 0 0 0 7.58-2.49zm.48-24.86l.46-.17v.49a10.93 10.93 0 0 1-7.08 11.16l-.41.14v-.49a11 11 0 0 1 7.03-11.13zm-11.72 4.06a10.93 10.93 0 0 1-11.92-5.69l-.23-.44.48-.1a10.93 10.93 0 0 1 11.93 5.69l.22.44zm1.13-4.29l-.23-.44a10.93 10.93 0 0 1 2.2-13l.36-.34.23.44a11 11 0 0 1-2.19 13zm2.26 33.31a10.8 10.8 0 0 1 6.8 1.54l.42.26-.36.33a10.95 10.95 0 0 1-13.15 1.31l-.42-.26.36-.34a10.81 10.81 0 0 1 6.35-2.84zm-2-10.82l-.07.49-.45-.2a10.94 10.94 0 0 1-6.38-11.59l.07-.49.45.2a11 11 0 0 1 6.38 11.59zm2.11 3.17h-.49l.14-.47a10.94 10.94 0 0 1 10.46-7.83h.67l-.14.47a11 11 0 0 1-10.48 7.83z"/></g></svg>