<svg xmlns="http://www.w3.org/2000/svg" viewBox="0 0 320 320" enable-background="new 0 0 320 320"><path d="M169.392 194.395c-5.858 5.858-5.858 15.355 0 21.213 2.929 2.929 6.768 4.394 10.606 4.394 3.839 0 7.678-1.464 10.606-4.394l44.998-44.997c.35-.351.683-.719.997-1.103l.385-.515c.165-.22.335-.435.488-.664.14-.209.261-.426.389-.64.123-.206.252-.407.366-.619.118-.22.217-.446.323-.67.104-.219.213-.435.306-.659l.243-.664c.087-.24.178-.477.253-.722.067-.222.116-.447.172-.672.063-.249.133-.497.184-.751.051-.259.082-.521.119-.782l.097-.669c.048-.484.073-.971.074-1.457l.001-.022-.001-.022c-.001-.487-.026-.973-.074-1.458l-.095-.661c-.038-.264-.069-.528-.121-.79-.05-.252-.119-.496-.182-.743-.057-.227-.107-.456-.175-.681-.073-.241-.164-.474-.249-.711-.081-.226-.155-.453-.247-.675-.091-.22-.199-.431-.3-.645-.108-.229-.21-.46-.33-.685-.11-.205-.235-.4-.354-.599-.132-.221-.256-.444-.4-.659-.146-.219-.309-.424-.466-.635l-.407-.544c-.299-.364-.616-.713-.948-1.048l-.045-.05-45-45.001c-5.858-5.858-15.355-5.857-21.213 0-5.858 5.858-5.858 15.355 0 21.213l19.394 19.395h-173.786c-8.284 0-15 6.716-15 15 0 8.284 6.716 15 15 15h173.785l-19.393 19.392zM305 25h-190c-8.284 0-15 6.716-15 15v60c0 8.284 6.716 15 15 15s15-6.716 15-15v-45h160v210h-160v-45.001c0-8.284-6.716-15-15-15s-15 6.716-15 15v60.001c0 8.284 6.716 15 15 15h190c8.284 0 15-6.716 15-15v-240c0-8.285-6.716-15-15-15z"/></svg>