<svg xmlns="http://www.w3.org/2000/svg" viewBox="0 0 320 320" enable-background="new 0 0 320 320"><path d="M268.8 145h-173.8c-8.3 0-15 6.7-15 15s6.7 15 15 15h173.8l-19.4 19.4c-5.9 5.9-5.9 15.4 0 21.2 5.9 5.9 15.4 5.9 21.2 0l45-45c.4-.4.7-.7 1-1.1l.4-.5c.2-.2.3-.4.5-.7l.4-.6.4-.6c.1-.2.2-.4.3-.7.1-.2.2-.4.3-.7.1-.2.2-.4.2-.7l.3-.7c.1-.2.1-.4.2-.7.1-.2.1-.5.2-.8.1-.3.1-.5.1-.8 0-.2.1-.4.1-.7l.1-1.5c0-.5 0-1-.1-1.5 0-.2-.1-.4-.1-.7l-.1-.8c-.1-.3-.1-.5-.2-.7l-.2-.7c-.1-.2-.2-.5-.2-.7-.1-.2-.2-.5-.2-.7l-.3-.6-.3-.7c-.1-.2-.2-.4-.4-.6-.1-.2-.3-.4-.4-.7-.1-.2-.3-.4-.5-.6-.1-.2-.3-.4-.4-.5-.3-.4-.6-.7-.9-1v-.1l-45-45c-2.9-2.9-6.8-4.4-10.6-4.4s-7.7 1.5-10.6 4.4c-5.9 5.9-5.9 15.4 0 21.2l19.2 19.6zM15 295h190c8.3 0 15-6.7 15-15v-60c0-8.3-6.7-15-15-15s-15 6.7-15 15v45h-160v-210h160v45c0 8.3 6.7 15 15 15s15-6.7 15-15v-60c0-8.3-6.7-15-15-15h-190c-8.3 0-15 6.7-15 15v240c0 8.3 6.7 15 15 15z"/></svg>