<svg xmlns="http://www.w3.org/2000/svg" viewBox="0 0 476.737 476.737" enable-background="new 0 0 476.737 476.737"><path d="M238.369 0c-131.643 0-238.369 106.726-238.369 238.369 0 131.675 106.726 238.369 238.369 238.369 131.675 0 238.369-106.694 238.369-238.369-.001-131.643-106.695-238.369-238.369-238.369zm0 444.955c-113.908 0-206.586-92.678-206.586-206.586s92.677-206.587 206.586-206.587 206.586 92.678 206.586 206.586-92.678 206.587-206.586 206.587zm105.39-216.979l-122.553-97.096c-6.897-5.403-18.084-5.403-24.981 0l-.159.159c-3.305 2.511-5.371 6.007-5.371 9.916v194.191c0 3.973 2.193 7.501 5.594 9.98l-.064.064c6.897 5.435 18.084 5.435 24.981 0l123.221-97.318c6.929-5.403 6.929-14.207 0-19.61l-.668-.286z" fill="#010002"/></svg>