<svg xmlns="http://www.w3.org/2000/svg" viewBox="0 0 80 80" enable-background="new 0 0 80 80"><path d="M39.8 40.5c9.4 0 17-7.5 17.1-16.8 0-9.6-7.5-17.2-16.9-17.2-9.4 0-17 7.6-17 16.9-.1 9.3 7.5 17 16.8 17.1zm.1-25.4c4.6 0 8.3 3.7 8.3 8.3 0 4.6-3.6 8.3-8.3 8.3s-8.3-3.6-8.3-8.3c-.1-4.5 3.6-8.3 8.3-8.3zm19.1 32c1.3-1.4 1.4-3.1.3-4.9-1-1.5-2.7-2.2-4.4-1.7-.9.2-1.7.7-2.4 1.3-7.5 5-17.8 4.9-25.3-.2-.3-.3-.8-.5-1.1-.7-2.1-1-4.1-.5-5.2 1.2-1.4 2-1.2 3.9.6 5.6.4.4 1 .8 1.5 1.2 4 3.1 8.7 4.4 13.9 5l-.8.9c-4 3.8-7.8 7.6-11.6 11.5-.8.8-1.3 1.7-1.4 2.8-.1 1.7 1 3.4 2.7 4.2 1.5.8 3.1.5 4.5-.8 3-2.9 5.9-5.9 8.9-9 .8-.8 1.1-.9 2-.1 2.9 3 5.8 5.9 8.7 8.8.8.8 1.6 1.3 2.7 1.4 1.7.1 3.5-1 4.3-2.7.7-1.5.4-3.2-.8-4.5-3.8-3.9-7.7-7.8-11.6-11.6-.3-.3-.5-.5-.9-1 2.9-.3 5.7-.8 8.3-1.9 2.5-1.1 5-2.7 7.1-4.8z"/></svg>