<svg xmlns="http://www.w3.org/2000/svg" viewBox="0 0 508.52 508.52" enable-background="new 0 0 508.52 508.52"><path d="M254.26 0c-140.415 0-254.26 113.845-254.26 254.26s113.845 254.26 254.26 254.26 254.26-113.845 254.26-254.26-113.845-254.26-254.26-254.26zm0 476.737c-122.68 0-222.477-99.829-222.477-222.477 0-122.68 99.797-222.477 222.477-222.477 122.649 0 222.477 99.797 222.477 222.477 0 122.648-99.829 222.477-222.477 222.477zm-63.565-317.825c-17.544 0-31.782 14.239-31.782 31.782v127.13c0 17.544 14.239 31.783 31.782 31.783s31.782-14.239 31.782-31.783v-127.13c0-17.543-14.238-31.782-31.782-31.782zm127.13 0c-17.544 0-31.782 14.239-31.782 31.782v127.13c0 17.544 14.239 31.783 31.782 31.783 17.544 0 31.783-14.239 31.783-31.783v-127.13c-.001-17.543-14.239-31.782-31.783-31.782z" fill="#010002"/></svg>