<svg width="64" xmlns="http://www.w3.org/2000/svg" height="64" viewBox="0 0 64 64"><path fill="#1D1D1B" d="M2.138 63.89c.242 0 .489-.043.726-.132l10.757-4.061c.207-.079.388-.197.554-.331.168-.092.339-.181.478-.319l44.032-44.034.018-.027 3.214-3.211c2.615-2.621 2.659-6.842.092-9.415-2.573-2.566-6.797-2.522-9.414.097l-3.365 3.366-.042.063-43.85 43.849c-.136.136-.216.301-.306.461-.121.146-.227.305-.303.483l-4.475 10.344c-.327.755-.171 1.635.398 2.23.396.415.934.637 1.486.637zm3.808-5.683l1.351-3.126 1.898 1.898-3.249 1.228zm53.158-52.942c.968.969.925 2.589-.094 3.609l-1.782 1.782-3.514-3.515 1.78-1.781c1.021-1.023 2.645-1.062 3.61-.095zm-8.282 4.789l3.509 3.508-41.131 41.132-3.508-3.509 41.13-41.131z"/></svg>