<svg xmlns="http://www.w3.org/2000/svg" viewBox="0 0 330 330" enable-background="new 0 0 330 330"><path d="M125.005 165.008c-22.058 0-40.003-17.945-40.003-40.002 0-8.284-6.716-15-15-15-8.284 0-15 6.716-15 15 0 38.6 31.403 70.002 70.003 70.002 8.284 0 15-6.716 15-15 0-8.284-6.716-15-15-15zM325.606 304.394l-102.277-102.277c16.706-21.256 26.682-48.04 26.682-77.111 0-68.929-56.077-125.006-125.006-125.006-68.928 0-125.005 56.077-125.005 125.005s56.077 125.005 125.005 125.005c29.07 0 55.855-9.975 77.111-26.681l102.278 102.277c2.928 2.93 6.767 4.394 10.606 4.394 3.839 0 7.678-1.464 10.606-4.394 5.858-5.857 5.858-15.355 0-21.212zm-295.606-179.389c0-52.386 42.619-95.005 95.005-95.005 52.386 0 95.006 42.619 95.006 95.005 0 52.386-42.62 95.005-95.006 95.005s-95.005-42.619-95.005-95.005z"/></svg>