<svg xmlns="http://www.w3.org/2000/svg" viewBox="0 0 60 60"><title>smartphone-recieve</title><g><path d="M42.59 0h-25.19a4.41 4.41 0 0 0-4.4 4.41v51.18a4.41 4.41 0 0 0 4.4 4.41h25.19a4.41 4.41 0 0 0 4.41-4.4v-51.19a4.41 4.41 0 0 0-4.41-4.41zm-27.59 8h30v38h-30zm2.4-6h25.19a2.41 2.41 0 0 1 2.41 2.41v1.59h-30v-1.59a2.41 2.41 0 0 1 2.4-2.41zm25.19 56h-25.19a2.41 2.41 0 0 1-2.4-2.4v-7.6h30v7.6a2.41 2.41 0 0 1-2.41 2.4zM30 49a4 4 0 1 0 4 4 4 4 0 0 0-4-4zm0 6a2 2 0 1 1 2-2 2 2 0 0 1-2 2zM26 5h4a1 1 0 1 0 0-2h-4a1 1 0 0 0 0 2zM33 5h1a1 1 0 0 0 0-2h-1a1 1 0 0 0 0 2zM56.61 4.57a1 1 0 1 0-1.41 1.43 9.59 9.59 0 0 1 0 13.55 1 1 0 1 0 1.41 1.41 11.6 11.6 0 0 0 0-16.39zM52.4 6.84a1 1 0 0 0-1.4 1.42 6.57 6.57 0 0 1 0 9.28 1 1 0 1 0 1.41 1.41 8.57 8.57 0 0 0 0-12.1zM4.8 6a1 1 0 1 0-1.41-1.43 11.6 11.6 0 0 0 0 16.38 1 1 0 0 0 1.41-1.42 9.59 9.59 0 0 1 0-13.53zM9 6.57a1 1 0 0 0-1.41 0 8.57 8.57 0 0 0 0 12.11 1 1 0 1 0 1.41-1.42 6.57 6.57 0 0 1 0-9.26 1 1 0 0 0 0-1.43z"/></g></svg>