<svg xmlns="http://www.w3.org/2000/svg" viewBox="0 0 50 60"><title>smartphone-send</title><g><path d="M30 53a4 4 0 1 0 4-4 4 4 0 0 0-4 4zm2 0a2 2 0 1 1 2 2 2 2 0 0 1-2-2zM29 5h4a1 1 0 0 0 0-2h-4a1 1 0 0 0 0 2zM36 5h1a1 1 0 0 0 0-2h-1a1 1 0 0 0 0 2zM0 35h16v20.6a4.41 4.41 0 0 0 4.41 4.4h25.19a4.41 4.41 0 0 0 4.4-4.41v-51.18a4.41 4.41 0 0 0-4.4-4.41h-25.2a4.41 4.41 0 0 0-4.4 4.41v9.59h-16zm48-30.59v1.59h-30v-1.59a2.41 2.41 0 0 1 2.41-2.41h25.19a2.41 2.41 0 0 1 2.4 2.41zm-30 51.19v-7.6h30v7.6a2.41 2.41 0 0 1-2.4 2.4h-25.2a2.41 2.41 0 0 1-2.4-2.4zm0-20.6h6.67l9.33 7v-7h4v-21h-20v-6h30v38h-30zm-16-19h34v17h-4v5l-6.67-5h-23.33zM18 22a1 1 0 0 0-1-1h-10a1 1 0 0 0 0 2h10a1 1 0 0 0 1-1zM31 26h-24a1 1 0 0 0 0 2h24a1 1 0 0 0 0-2z"/></g></svg>