<svg xmlns="http://www.w3.org/2000/svg" viewBox="0 0 508.52 508.52" enable-background="new 0 0 508.52 508.52"><path d="M397.281 31.782h-63.565c0-17.543-14.238-31.782-31.782-31.782h-95.347c-17.544 0-31.782 14.239-31.782 31.782h-63.565c-17.544 0-31.782 14.239-31.782 31.782h349.607c-.002-17.543-14.24-31.782-31.784-31.782zm-317.825 444.955c0 17.544 14.239 31.782 31.782 31.782h286.042c17.544 0 31.782-14.239 31.782-31.782v-381.39h-349.606v381.39zm31.783-349.607h286.042v349.607h-286.042v-349.607zm47.673 31.782c-8.772 0-15.891 7.119-15.891 15.891v254.26c0 8.74 7.119 15.891 15.891 15.891s15.891-7.151 15.891-15.891v-254.26c.001-8.771-7.119-15.891-15.891-15.891zm95.348 0c-8.772 0-15.891 7.119-15.891 15.891v254.26c0 8.74 7.119 15.891 15.891 15.891 8.74 0 15.891-7.151 15.891-15.891v-254.26c0-8.771-7.151-15.891-15.891-15.891zm95.347 0c-8.74 0-15.891 7.119-15.891 15.891v254.26c0 8.74 7.151 15.891 15.891 15.891s15.891-7.151 15.891-15.891v-254.26c.001-8.771-7.151-15.891-15.891-15.891z" fill="#090509"/></svg>