<svg xmlns="http://www.w3.org/2000/svg" viewBox="0 0 58.999 58.999" enable-background="new 0 0 58.999 58.999"><path d="M19.479 12.019c.256 0 .512-.098.707-.293l8.313-8.313v35.586c0 .553.447 1 1 1s1-.447 1-1v-35.586l8.272 8.272c.391.391 1.023.391 1.414 0s.391-1.023 0-1.414l-9.978-9.978c-.092-.093-.203-.166-.327-.217-.244-.101-.519-.101-.764 0-.123.051-.234.125-.326.217l-10.018 10.019c-.391.391-.391 1.023 0 1.414.195.196.451.293.707.293zM36.499 15.999c-.553 0-1 .447-1 1s.447 1 1 1h13v39h-40v-39h13c.553 0 1-.447 1-1s-.447-1-1-1h-15v43h44v-43h-15z"/></svg>