<svg width="64" xmlns="http://www.w3.org/2000/svg" height="64" viewBox="0 0 64 64"><path fill="#1D1D1B" d="M.022 32.384l.095.247c.048.15.079.305.167.444.484.77 12.067 18.869 29.97 19.793.472.023.942.036 1.414.036 10.969 0 21.706-6.606 31.931-19.657l.099-.197.139-.275c.059-.142.111-.277.137-.426.024-.121.025-.24.026-.365-.001-.125-.002-.244-.026-.365-.026-.149-.078-.285-.137-.427l-.139-.275-.099-.197c-10.664-13.611-21.887-20.195-33.345-19.621-17.903.924-29.486 19.023-29.97 19.793-.088.14-.119.294-.167.443l-.095.247c-.027.134-.014.266-.013.401-.001.136-.014.267.013.401zm31.98-15.067c6.985 0 12.667 5.683 12.667 12.668 0 6.985-5.682 12.667-12.667 12.667-6.986 0-12.667-5.682-12.667-12.667 0-6.985 5.682-12.668 12.667-12.668zm-11.495.548c-3.215 3.05-5.232 7.35-5.232 12.121 0 9.223 7.505 16.728 16.728 16.728 9.222 0 16.727-7.505 16.727-16.728 0-4.426-1.739-8.444-4.556-11.438 5.116 2.784 10.207 7.271 15.224 13.437-9.479 11.65-19.213 17.332-28.914 16.83-13.487-.686-23.357-13.109-26.023-16.832 1.951-2.726 7.769-10.078 16.046-14.118z"/></svg>