<svg xmlns="http://www.w3.org/2000/svg" viewBox="0 0 80 80" enable-background="new 0 0 80 80"><path d="M39.2 59.8h4.2s1.3-.1 1.9-.8c.6-.6.6-1.8.6-1.8s-.1-5.6 2.5-6.4c2.6-.8 5.9 5.4 9.4 7.8 2.6 1.8 4.7 1.4 4.7 1.4l9.4-.1s4.9-.3 2.6-4.1c-.2-.3-1.4-2.8-6.9-8-5.9-5.4-5.1-4.6 2-14 4.3-5.7 6-9.2 5.5-10.7-.5-1.4-3.7-1.1-3.7-1.1l-10.5.1s-.8-.1-1.4.2c-.6.3-.9 1.1-.9 1.1s-1.7 4.4-3.9 8.2c-4.7 8-6.6 8.4-7.3 7.9-1.8-1.2-1.3-4.6-1.3-7.1 0-7.7 1.2-10.9-2.3-11.8-1.1-.3-2-.5-4.9-.5-3.8 0-6.9 0-8.7.9-1.2.6-2.1 1.9-1.6 2 .7.1 2.3.4 3.1 1.6 1.1 1.5 1 4.8 1 4.8s.6 9.1-1.5 10.2c-1.4.8-3.4-.8-7.5-8-2.1-3.7-3.8-7.8-3.8-7.8s-.3-.8-.9-1.2c-.7-.5-1.6-.7-1.6-.7l-10 .1s-1.5 0-2.1.7c-.5.6 0 1.8 0 1.8s7.7 18.2 16.6 27.4c8.1 8.5 17.3 7.9 17.3 7.9"/></svg>