<svg height="630pt" preserveAspectRatio="xMidYMid meet" viewBox="0 0 649 630" width="649pt" xmlns="http://www.w3.org/2000/svg"><g transform="matrix(.1 0 0 -.1 0 630)"><path d="m3265 6280c-33-11-84-24-113-30-29-7-66-23-82-36-25-22-36-24-73-19-37 6-50 3-81-19-20-14-61-32-90-40-68-20-104-49-111-89-8-43 8-84 52-129 30-31 38-48 44-97 5-37 22-86 44-126 38-73 42-92 21-120-13-18-14-18-32 5-65 79-60 75-88 62-22-10-26-19-27-54-3-77 2-113 19-129 19-18 104-49 135-49 28 0 77-32 77-51 0-22 38-69 55-69 27 0 53-41 69-109 9-37 14-75 11-84-8-18 11-57 27-57 32 0 50-68 23-90-13-11-61-16-90-10-22 5-35-1-35-15 0-8-5-15-11-15s-17-7-25-15c-9-8-31-15-50-15-21 0-42-8-54-20-26-26-25-28 4-23 28 6 44-13 26-30-10-9-14-9-17 1-4 10-9 8-20-7-8-12-21-21-29-21-15 0-14 8 4 60 4 12 1 11-15-2-11-10-27-18-36-18-26 0-32-22-9-40 25-20 14-44-20-45-18 0-22-5-20-23 3-36-21-21-33 20-5 19-18 43-29 53-18 18-18 19 4 37 25 20 46 23 55 8 10-16 25-1 25 25 0 22-3 24-29 19-34-7-46 13-31 52 7 19 7 31-1 40-9 11-7 22 5 49 9 19 21 35 25 35 16 0 21-30 9-55-14-30 6-62 27-45 7 6 25 8 39 4 30-7 33 6 12 45-19 33 6 111 35 111 14 0 19-7 19-30 0-25 4-30 25-30 14 0 28 0 32-1 4 0 11 14 16 30 7 28 27 44 27 22 0-10 31-24 38-16 8 8-20 36-45 46-14 5-33 5-49-1-23-9-26-7-36 20-12 36-25 38-39 6-22-48-113-93-164-80-27 7-27 6-23-37l3-44-42 3c-35 2-44-2-54-20-7-13-22-32-34-44-22-21-23-21-49-1-24 17-26 21-13 41 8 11 17 32 20 46 4 14 25 38 47 53 22 16 40 36 40 46 0 18 76 131 110 163 19 18 19 20 4 43-9 14-13 25-8 25s-2 7-14 16c-13 9-34 39-48 67-14 32-36 59-54 69-36 21-40 62-10 101 11 14 20 32 20 41s15 33 34 53c97 108 27 225-124 208-39-4-71-2-94 6-29 10-40 10-60 0-35-19-52-9-64 41-24 93-73 127-177 123-85-3-95-7-117-45-15-26-23-30-61-30-32 0-49-6-64-22-37-42-133-211-133-235 0-68 61-113 152-113 57 0 78-12 78-43 0-16-5-19-31-13-29 5-37 0-96-61-80-84-97-120-83-171 10-39 48-66 76-55 9 3 25 26 38 52 20 42 25 46 55 44 34-1 71-27 71-49 0-27 22-24 80 12 77 48 133 51 166 9 27-34 34-73 20-117-10-29-16-34-53-39-23-3-52-14-63-25-12-10-45-30-73-44-33-16-57-36-67-55-17-34-66-85-81-85-6 0-7-4-4-10 3-5-1-20-9-32-9-12-16-30-16-39 0-31-31-79-51-79-10 0-19-7-19-15 0-26-14-16-52 36-28 38-38 61-38 89 0 61-19 144-38 162-14 14-24 16-62 7-60-14-84-6-109 36-16 27-27 35-49 35s-37 9-56 35c-34 44-66 53-116 30-40-18-40-18-78 9-21 14-49 26-61 26-13 0-62-20-110-45-47-24-98-47-113-50-67-13-125-96-152-216-22-96-11-146 44-201 31-31 45-38 77-38 23 0 60-10 87-25 56-30 93-32 120-6 12 11 34 22 50 25 25 5 27 3 21-17-4-12-8-35-9-52-1-28 3-31 45-41 26-7 57-19 70-27 31-20 73-12 89 18 24 45 94 36 155-20 32-30 31-43-2-88-19-25-36-36-54-37-14 0-34-8-45-18s-31-26-46-36c-14-9-34-33-43-52s-22-33-28-31c-17 5-30 104-17 127 14 26 12 50-3 50-8 0-30-15-50-32-28-25-39-43-43-73-9-64-13-73-46-84-46-16-54-14-94 22-21 17-60 43-88 57-66 32-96 77-96 142 0 57-18 98-54 122-47 30-97 14-172-54-23-21-55-45-72-54-48-25-72-63-72-112 0-33-5-49-21-62-48-39-49-42-49-118 0-90-9-110-54-118-19-4-39-13-46-20-6-8-41-35-79-60-88-60-105-85-125-186-28-141 0-321 55-350 32-18 99-7 145 24 34 22 50 26 100 24 32-1 79 4 104 11 39 12 52 12 102-3 51-15 58-20 69-54 16-50 27-62 58-62 60 0 89-50 56-97-20-29-46-103-36-103 4 0 32 18 62 40 29 23 62 39 73 38 10-2 27-18 36-35 33-61 39-66 99-61 43 4 58 10 70 28 33 47 61 70 86 70 21 0 25-5 26-32 2-53-2-72-18-90-15-17-14-66 2-131 6-21 3-33-13-50-11-12-27-52-35-90-10-46-22-73-39-86-20-17-23-27-22-86 2-62 0-67-22-76-15-5-31-5-42 0-9 5-24 12-32 14-8 3-21 26-28 51-10 40-18 49-50 62-40 17-92 70-147 149l-34 51-63-3c-35-1-89 5-121 14-49 13-65 24-104 69-84 99-155 94-230-18-57-85-73-134-84-258-9-114-1-145 55-215 21-27 31-31 92-35 84-6 92-22 41-80-37-41-41-53-52-202-5-63-3-81 11-103 9-14 21-49 25-77 5-32 17-61 32-77 40-42 46-62 52-172 8-136 10-143 45-176 16-15 35-46 42-68 9-26 24-46 46-60 18-11 62-41 97-66 105-76 161-74 217 6 18 25 35 45 39 45s17-15 28-33 29-42 41-52c25-22 25-51 2-90-10-16-21-41-25-53-6-27 19-185 34-215 17-31 125-94 173-101 26-4 59-19 81-36 61-49 150-64 193-34 44 30 55 68 47 165-9 112 1 131 81 154l57 16 32-31c27-26 38-31 62-26 23 5 34 1 60-24 32-32 34-53 8-75-7-6-18-30-25-54-11-42-12-43-43-37-112 23-140 19-162-24-23-45-19-109 10-153 14-20 29-37 33-37s21-23 37-50c30-51 41-57 128-75 34-7 35-27 2-89-40-75-34-114 24-178 26-29 55-67 65-85 20-39 52-63 86-63 14 0 41-11 60-25 28-21 45-25 99-25 80 1 149 15 173 37 23 21 36 70 44 164 10 106 16 119 59 119 20 0 46-5 58-11 30-15 117-101 117-114 0-6-14-24-31-41-58-55-75-117-44-161 20-28 153-136 194-157 24-13 42-15 85-8 39 6 61 5 77-4 19-10 30-10 58 2 18 8 46 14 61 14 35 0 53 22 75 90 15 44 18 84 16 222-1 92-6 181-11 198s-6 38-3 46c7 20 39 17 60-5 40-42 54-34 108 61l15 28 40-25c43-27 70-31 102-14 24 13 27 10 35-33 5-33 2-38-39-67-48-35-85-102-107-196-7-28-28-70-47-94-59-76-36-144 52-158 24-3 51-17 71-36 30-28 35-29 92-23 45 5 68 3 90-9 42-21 65-19 99 10 16 13 54 34 85 45 94 35 129 99 93 169-8 15-40 47-71 70-66 50-75 69-62 127 11 47-1 74-33 74s-70 39-76 81c-4 23-12 39-20 39s-14 5-14 10c0 6 9 10 20 10 28 0 53 44 55 98 2 33 8 50 24 63 18 15 50 114 39 124-10 10-100-10-118-27-25-24-54-16-57 14-6 85-16 116-40 127-23 11-25 15-18 56 5 37 3 46-10 51s-15 15-10 40c5 27 3 34-9 34-9 0-23 11-32 25s-22 25-30 25c-7 0-32 10-56 22-29 15-60 22-101 23-43 0-62 5-71 17-6 9-23 18-36 20-20 2-24 8-22 28 4 39 3 83-2 108-4 19-2 22 14 17 10-3 21-1 25 4 4 7 15 5 31-5 13-9 27-14 31-11 11 11 43-14 43-33 0-11 5-20 10-20 6 0 10 6 10 14 0 7 7 19 15 26s15 18 15 26c0 7 5 25 11 41 9 25 12 26 20 11 6-10 19-18 31-18 19 0 20-4 14-47-3-27-15-60-26-75-20-27-20-27-1-38 27-14 50-13 67 5 9 8 24 15 35 15 10 0 19 5 19 10 0 7 7 7 20 0 12-6 33-10 48-8 21 2 28 10 35 41 11 44 32 51 24 7-5-23-1-36 18-56 29-31 31-50 8-76-9-10-11-18-5-18s17 9 25 20c9 13 20 17 35 13 27-7 28-34 5-74-16-26-16-31-3-39 11-7 19-5 28 8 7 9 18 16 24 14 15-4 37 29 38 56 0 13 6 22 15 22s21 11 27 25c11 24 48 36 48 15 0-5 8-10 18-10s24-6 31-13c11-10 15-9 19 3 8 22 74 81 87 77 5-2 9-20 7-40-2-31 1-37 21-42 22-6 23-11 23-77-1-62-4-72-21-78-32-12-42-30-48-88-5-42-3-54 9-59 22-8 37-52 24-68-6-7-38-15-72-18-68-6-90-23-79-60 15-53 28-62 89-66 24-2 42-66 36-129-6-57-6-59 27-85 19-15 39-32 46-37 17-13 4-49-24-67-68-45-69-154-2-188 15-8 46-17 70-21s61-15 81-25c31-16 45-17 89-9 29 6 60 17 69 25 14 12 22 11 70-17 45-26 67-31 128-34 70-2 75-1 99 27 21 23 35 29 67 29 23 0 46 4 52 8s29 37 51 73c48 79 141 207 193 263 49 54 60 77 60 126 0 50-28 80-92 99-88 27-118 49-143 106-27 61-37 70-63 56-16-8-18-19-14-59 4-41 1-53-17-71-34-34-80-28-116 14l-30 35-35-19c-88-50-117-61-165-61-45 0-53 4-76 33-41 52-52 76-40 91 6 8 9 21 5 30-4 10-1 16 9 16 8 0 21 14 29 31 12 28 16 30 50 25 21-4 46-2 55 2 56 28 94 42 142 52 46 11 55 17 67 46 8 18 14 42 14 53 0 27-74 91-106 91-14 0-23 3-21 8 3 4-10 18-28 32-25 19-36 37-45 78-9 42-17 55-40 67-32 17-50 43-50 74 0 11-13 35-28 53-16 18-31 41-35 51-4 9-13 17-21 17-7 0-16 7-20 15-3 10-19 15-45 15-22 0-43 5-46 10-4 7-12 7-25 0-25-13-50-3-50 21 0 10-7 19-15 19s-15 8-15 17c0 11-6 6-17-14-10-17-32-43-50-58-29-24-36-25-70-16-20 6-39 8-41 6-3-2-13 0-22 5-27 15-31 77-7 127 21 43 38 53 97 53 32 0 35 2 35 29 0 17-6 36-12 42-19 19-16 31 6 24 12-3 21 0 24 9 4 9-1 17-12 21-13 4-17 12-13 30 3 20 0 25-17 25-25 0-26 7-7 29 19 21 31 81 17 81s-14 47-1 55c5 3 10 0 10-7 1-7 10-24 21-37 17-21 22-22 30-10s11 11 23-3c20-27 55-23 66 7 10 25 34 33 45 15 3-6-1-13-9-16-9-3-16-15-16-25s-4-19-10-19c-5 0-10-7-10-15s-4-15-9-15-15-16-21-35c-13-40-30-39-22 1 4 23 3 25-15 14-12-8-20-25-21-46-2-30 0-34 22-34s26-6 32-45c4-30 11-45 21-45 11 0 13 5 8 18-15 36-17 52-6 52 6 0 14-7 17-15 10-25 41-27 81-4 53 30 103 41 103 23 0-8-7-17-15-20-8-4-15-12-15-20 0-16 16-19 25-4 3 5 25 7 50 3 43-5 45-5 45 20 0 24 16 37 46 37 8 0 14-9 14-20s4-20 10-20c5 0 7 6 4 14s4 16 20 20c14 3 26 11 26 16s14 17 31 25c30 16 31 16 24-4-9-30 22-27 56 5 19 18 35 24 55 22 31-4 23-10-31-24l-30-8 29-4c45-6 70 5 89 38 15 24 16 34 7 45s-9 18 3 29c29 29 37-10 12-58-18-34-18-37-3-33 7 1 14-8 16-20 2-15-2-23-12-23-19 0-28-14-20-34 9-23 38-20 49 6 8 19 19 23 60 25 55 1 105 17 105 33 0 21 34 8 81-31 32-26 56-39 71-38 35 5 48-9 48-47 0-20 5-44 10-55 24-45-50-127-136-150-52-15-86-53-84-97 3-67 0-82-20-102-24-24-53-26-73-5-14 13-13 21 9 65 27 56 25 70-10 70-12 0-32 11-44 25-28 32-46 33-36 3 4-13 6-41 6-62-2-28 4-45 18-58 22-21 26-48 8-66-8-8-8-15 0-24 14-17-1-94-28-148l-20-40h34c28 0 36 5 45 29 16 38 103 125 141 141 16 7 30 16 30 21 0 14 56 11 68-3 6-7 13-31 17-53 11-58 21-73 63-93 46-21 59-58 65-177 4-81 6-88 35-118 31-30 33-31 74-20 39 11 47 9 86-13 23-14 47-22 53-18 6 3 42 6 81 5 77-2 120 14 197 71 68 51 85 79 84 140-1 36 7 73 24 113 50 119 16 195-104 233-49 15-168 91-231 147-32 27-56 51-54 52 7 9 0 23-13 23-27 0-16 16 18 25 26 8 35 18 45 53 12 37 20 45 63 63 33 14 49 27 49 40 0 9 6 24 13 31 33 33 48 97 29 123-10 15-78 34-99 29-23-5-34 4-53 41-9 17-29 36-45 43-17 8-40 29-53 48-16 24-30 34-50 35-73 3-125 12-177 29l-37 12 21 22c14 15 21 36 21 63 0 36-4 43-42 69-24 16-48 35-54 43-9 11-14 11-32 0-17-11-24-11-34-1-6 6-20 12-29 12-10 0-21 9-24 20-7 24-23 26-31 5-4-8-17-15-31-15-23 0-25-3-19-31 5-28 4-30-22-27-19 2-28 9-30 26-3 21-32 33-32 12 0-5-13-16-29-25-16-8-32-23-36-34-4-13-12-17-25-14-25 7-25-4 0-58 11-24 20-52 20-62 0-28-25-14-28 15-2 15-9 29-17 31-23 10-55-5-55-24 0-16 5-18 27-13 23 6 25 5 19-12-18-47-42-94-48-94-5 0-8 21-8 47 0 37-3 44-12 35-20-20-26-14-33 31-10 56-22 77-45 77-11 0-20 5-20 11 0 5 4 8 9 4 5-3 12-1 16 5 3 5 0 10-7 10s-21 18-30 39c-21 44-23 60-6 43 16-16 28-15 28 3 0 8 6 15 13 15 13 0 54 67 45 75-12 12-58-15-58-34 0-11-9-25-20-31-14-7-20-7-20 0 0 5-9 19-20 30-16 16-20 17-20 5 0-22-17-18-23 6-7 27-31 20-35-10-2-14-9-21-17-17-8 3-17 1-20-4-4-6-15-10-26-10-10 0-19-5-19-12 0-9-3-9-11-1-17 17-1 33 32 33 19 0 32 6 36 18 4 9 17 27 30 40 13 12 21 27 18 32-11 17-23 11-37-17-15-32-37-41-34-16 0 10-6 18-14 18s-15-9-15-20c0-26-41-65-68-65h-22l23 18c17 13 20 20 11 29-8 8-6 13 10 18 28 8 29 39 1 32-31-8-23 7 10 20 31 12 41 33 15 33-11 0-15 11-15 40 0 41 19 57 21 18 1-17 2-19 6-5 8 32 22 17 16-18-4-27-2-35 9-35 20 0 40 44 26 58-6 6 0 12 19 16 17 5 29 3 31-3s8-11 14-11c13 0 38-26 38-39 0-26 71 2 96 37 13 18 11 19-29 17-23-1-50-6-60-10s-20-5-24-2c-10 11 41 64 75 78 17 7 32 16 32 21 0 10-6 10-28-1-9-5-34-17-54-27-21-10-38-22-38-26 0-5-4-8-10-8-5 0-7 7-4 15 9 22-31 19-53-4-24-24-43-30-70-20-17 6-23 3-33-22-7-16-16-29-21-29-13 0-11 14 3 28 8 8 5 14-15 21-14 5-30 18-37 28-9 15-10 11-4-17 7-38 30-70 49-70 13 0 28-40 20-49-3-2-5 1-5 7 0 7-9 12-20 12-12 0-20 7-20 16 0 12-7 14-31 9-29-7-30-6-20 13 7 14 8 23 1 27s-7 13 0 26c9 15 7 19-7 19-12 0-14 3-6 11s7 18-2 37c-27 57-27 67 10 102 29 28 32 35 20 44-13 9-12 15 10 39 22 23 36 28 83 27 12-1 22-54 12-64-17-17-11-37 15-62 16-15 25-34 25-54 0-16 5-30 10-30 6 0 10 5 10 11 0 7 12 23 26 36 17 16 24 31 21 44-5 17-1 20 21 17 36-4 41 25 7 40-21 10-24 16-19 39 4 16 11 36 16 46 7 13 5 26-7 43-14 21-14 24 0 24 8 0 15-4 15-10 0-5 11-12 25-16 14-3 25-12 25-19 0-19 27-38 35-25 10 15 25 12 25-6 0-22 33-61 48-56 6 2 12-3 12-12s-6-16-14-16c-24 0-30-22-11-37 26-18 35-16 35 7 0 18 2 19 22 8 12-7 32-24 44-38l23-25-22-17c-12-9-35-18-50-20-32-3-73-57-49-65 6-3 12-11 12-20 0-8 7-13 18-11s16 11 14 26c-2 14 3 24 15 28 10 3 30 12 44 20 23 12 28 12 39-1 7-8 16-15 21-15 13 0 11 34-2 47-8 8-7 13 1 18 7 4 21-2 33-14 18-18 20-24 9-41-6-11-12-27-12-35 0-21 46-20 54 2 6 14 10 13 34-10 16-15 33-27 39-27s14-28 18-62c6-48 4-64-7-72-9-7-15-29-16-60v-48l32 31c18 17 35 28 39 24 4-3 41-8 82-9l74-3-2 37c-2 31 1 36 16 34 10-2 25 2 33 9 23 19 64-14 64-52 0-21 12-42 39-72l40-42 54 29c53 29 55 31 61 80 11 96 17 90-76 82-57-4-78-3-68 4 8 5 36 10 61 10 26 0 65 7 88 15 41 14 52 10 29-13-9-9-4-12 25-12 33 0 37 3 37 25 0 18-7 28-25 35-33 13-50 56-34 86 6 12 9 26 6 31s3 17 14 26c23 20 25 61 4 110-17 41-19 57-7 57 4 0 8-10 9-21 3-34 20-46 40-27 23 23 27 104 6 138-9 16-13 36-9 45 5 15 17 17 84 12 94-6 179-46 200-93 25-55 29-59 77-67 62-10 111 14 143 71 17 31 30 42 47 42 26 0 40 28 30 60-3 11 1 30 10 43 10 16 14 34 9 51-17 71 23 103 143 112 98 8 140 31 149 80 5 27 2 38-11 48-16 12-15 14 11 35l29 22-22 37c-16 29-20 48-16 88 5 48 3 54-30 91-46 51-57 80-66 178-10 102-24 131-86 175-27 19-79 63-115 98-35 34-75 65-88 69-23 5-24 9-17 60 7 55-2 91-46 190-11 24-19 47-19 53 0 5-22 34-49 64-27 29-54 71-61 92-7 22-21 55-31 74-11 19-19 49-19 67 0 35-18 58-67 84-20 11-33 28-37 47-9 39-42 68-87 76-21 4-48 19-66 39-39 40-88 136-103 202-17 74-40 124-61 130-11 4-19 10-19 14 0 13-74 48-128 61-84 19-201-4-228-45-9-14-16-40-16-60 0-19-8-45-18-58-16-20-27-22-92-20-43 1-91-4-116-12-51-18-108-19-118-4-10 17-86 49-116 49-17 0-35-10-52-31-31-37-35-98-11-191 16-59 16-60-8-84-14-14-30-39-37-57-26-70-30-78-40-72-6 3-10 23-10 43 0 42-23 82-47 82-8 0-28-14-43-30-16-17-46-36-67-43-26-9-43-23-53-45-8-17-18-32-22-32-8 0-11 46-8 114 2 52-18 64-46 28-21-26-24-26-65-15-70 18-85-6-49-77 11-22 20-53 20-70 0-19 4-29 10-25s17 2 25-5c10-8 15-7 22 5 5 9 17 17 26 19 9 1 20 5 23 9 11 11 34 8 34-4 0-6-11-20-25-30-24-20-24-20-4-40 11-11 24-17 29-14 6 4 10-3 10-13 0-11 20-39 45-63s48-52 51-62c8-26 24-10 24 24 0 16 5 29 10 29 22 0 61-33 56-47-10-25 13-53 43-53 19 0 32-7 41-25 8-15 22-25 36-25 15 0 27-9 36-27 9-19 22-29 41-31 18-2 27-9 27-22 0-16-5-17-42-8-24 5-53 19-65 30-15 14-28 18-40 13-32-13-96-15-110-3-8 7-12 21-9 34 8 32-15 47-42 28-17-11-21-21-16-40 4-13 1-31-6-39-21-25-4-45 39-45 33 0 40-4 45-24 3-14 3-32 0-41-4-10 1-21 12-29 16-12 17-18 6-54-12-40-36-60-48-40-4 6 1 15 10 20 19 11 21 42 4 55s-90 14-105 1c-6-5-9-17-6-25 4-11 2-14-5-9-7 4-12 18-12 31 0 17-10 28-32 40-21 10-34 12-36 5-2-5-7-10-12-10-12 0-40 30-40 43 0 8 4 7 12-1 19-19 40-15 33 7-4 15 0 18 25 17 24-1 30-5 26-19-2-9 3-26 12-38 16-18 20-19 56-7 39 13 66 41 53 54-4 4-13 2-19-4-18-18-38-14-38 6 0 32-82 56-107 31-5-5-22-7-36-4-32 8-55 69-35 92 21 25-4 34-60 22-59-12-79-34-89-91-4-28-10-38-24-38-15 0-19-7-19-37v-36l-21 19c-16 14-23 15-26 7-3-7-13-13-24-13-18 0-24-14-21-52 2-21-7-22-32-3-18 14-18 15 0 59 15 36 23 44 43 43 19-2 27 5 35 25 12 33 3 46-20 27-15-12-16-10-9 21 10 47 14 53 35 47 11-3 17 0 15 7-2 6-6 30-9 54-5 33-3 42 9 42 8 0 15-7 15-15s4-15 9-15c13 0 21 26 21 67 0 33-2 35-26 30-22-4-30 1-46 30-13 22-31 36-49 40-30 6-40 23-13 23 8 0 12 4 9 10-4 6 1 7 11 3 12-4 24 2 40 22l22 28 13-24c7-13 12-25 11-26-1-2-2-13-2-24 0-18 2-19 15-9 8 7 15 18 15 24 0 28-27 67-56 81-18 8-35 22-38 31-5 14-17 16-71 11-36-4-65-3-65 1s4 22 9 40c8 25 7 32-2 29-7-3-11-10-10-16 2-6-2-11-8-11-18 0-4 24 19 35 25 11 32 26 39 75 5 43 47 84 77 76 12-3 27-1 35 3 11 7 10 12-8 22-23 15-28 58-9 77 10 10 4 21-29 53l-41 41-61-7c-59-7-73-18-52-41 5-5 21-31 36-59 23-44 23-47 4-25-12 14-26 37-31 53-6 15-16 27-24 27-19 0-37 38-30 65 8 31-13 47-41 31-14-7-44-9-75-6-45 4-53 8-56 27-4 27 27 37 90 31 45-5 111 17 140 46 25 24 31 103 14 161-9 28-16 58-16 68 0 24 58 58 95 55l30-3 2-80c0-44 6-93 12-108 6-16 11-48 11-72 0-52 14-65 113-100 84-30 98-59 72-142-6-18-2-23 21-29 16-4 36-12 44-19s29-16 45-19c109-26 184-12 215 42 11 18 20 39 20 47s10 30 21 50c19 31 20 39 8 67-10 24-28 38-85 64-39 18-79 43-88 55-36 53-9 119 68 164 55 32 74 54 82 93 6 30 0 38-92 132-79 81-103 100-127 100-16 0-51 12-77 27l-48 27-55-17c-29-9-65-17-79-17-33 0-87-19-121-42-40-29-67-20-97 32-43 74-107 92-205 60zm1973-1072c7-7 12-31 12-54 0-37-7-51-47-97-37-42-55-75-78-143-16-49-33-95-38-101-18-25-62-15-93 22-40 48-57 46-33-5 11-22 23-40 28-40 9 0 88-115 122-179 20-37 32-47 71-60 54-18 60-23 79-71 7-19 26-53 40-75 15-23 31-54 35-70 4-17 12-41 19-55 46-92 94-200 99-225 4-16 27-64 52-106 44-76 60-89 111-89 49 0 69-64 38-124-8-15-15-48-15-73 0-24-4-42-9-39-5 4-11 1-13-6-3-8-11-7-27 4-22 15-26 15-64-5-47-24-113-26-136-3-12 12-12 19-3 28 33 33-2 88-55 88-23 0-33 5-33 15s10 15 34 15c44 0 62 21 44 50-10 15-19 19-37 15-19-5-22-3-17 10 3 9-2 27-11 41-12 19-13 28-4 37 6 6 11 7 11 3 0-5 6-3 14 3 17 14 10 80-9 96-15 12-29 79-15 70 6-3 10-12 10-20s5-17 10-20c14-9 3 135-12 152-18 23-47 24-87 4-23-10-38-15-35-9 4 6 1 9-7 6-8-2-15-18-17-34-2-20-13-36-37-51-34-23-35-23-45-3-13 24-62 27-104 5-16-9-55-16-88-17-52-1-60-4-71-27-16-34-32-28-33 12-2 60-4 67-23 67-27 0-37 37-17 59 9 10 16 28 16 42 0 35 10 46 58 58 44 12 45 14 27 77-4 12-1 25 7 32 20 16 60-12 51-36-6-16-5-16 13 0 13 12 30 15 52 12 39-6 40 1 9 81-24 61-57 88-57 46 0-12-3-21-7-22-29-3-50-12-104-45-57-34-63-36-75-20-8 12-23 16-46 14-32-3-33-5-33-46 0-34-5-48-24-63-47-39-67-21-50 46 10 39 9 48-5 64-9 9-16 24-16 31s-7 21-16 31c-14 15-13 19 12 38 38 30 67 27 101-13 17-20 41-36 59-39 29-5 34-2 63 42 38 60 41 91 7 91-27 0-107 62-118 91-4 11-5 26-1 35 5 14 3 15-15 5-28-15-32-14-32 8 0 23-36 51-65 51-12 0-26 5-33 12-16 16 3 48 29 48 11 0 31 7 44 16s29 13 35 9 10 7 10 29c0 41 50 106 81 106 10 0 32 15 48 33 18 18 31 26 31 18s3-11 7-8c3 4 13 1 22-7 34-30 111-66 141-66 26 0 41 10 78 51 26 29 55 68 66 88 10 20 25 44 34 54 17 20 62 23 80 5zm-3067-239c20-14 38-19 54-15 21 5 29 1 44-26 14-22 17-36 10-49-5-10-9-22-9-28 0-18 28-13 42 7 7 10 26 22 42 26 15 4 30 15 33 26 3 10 12 21 21 25 13 5 14 4 5-6-13-13-3-40 24-67 8-9 11-23 7-36-9-28-10-29-26-20-21 13-92 4-105-14-17-20-17-40-1-24 26 26 27 10 1-23s-28-34-52-19c-22 15-27 15-75-7-59-27-96-62-96-90 0-21-10-25-27-8-7 7-13 8-17 0-4-5 8-27 27-48 38-43 55-80 49-105-3-16-7-15-40 7-44 30-54 31-77 5-15-16-15-22-5-35 10-12 10-15-2-15-8 0-27-13-43-30-17-18-39-30-54-30-16 0-32-9-39-21-18-28-10-34 27-21 30 11 31 10 31-18 0-21 8-35 25-46 24-15 24-17 8-30-10-7-30-14-45-14-32 0-35-11-11-47l17-26-27 7c-15 3-35 1-46-6-16-10-25-9-45 1-21 11-28 12-41 1-12-10-20-9-41 5l-26 17 22 23c15 16 21 31 17 46-10 37 10 61 43 54 27-6 28-5 32 40 3 49-5 75-26 75-20 0-33 42-25 80 5 24 3 42-7 57-17 26-18 66-3 94 9 17 17 19 49 14 23-4 41-2 45 4 3 6 23 11 44 11 30 0 40 5 44 19 6 25-1 35-42 55-24 13-30 21-22 29 6 6 11 19 11 29 0 13 8 18 29 18 33 0 54-20 45-43-3-8-1-18 5-22 7-4 11 6 11 25 0 23 5 33 20 37 11 3 26 18 34 34 13 27 13 29-5 29-10 0-19 4-19 9 0 15 18 23 25 11 9-14 48-13 63 2 7 7 12 21 12 32 0 21 27 56 43 56 5 0 22-9 38-21zm3309-234c0-37-24-78-62-109-18-14-38-31-45-36-7-6-12-26-11-45 1-34-15-65-35-65-15 0-87 71-87 86 0 6 11 23 25 38 17 18 34 26 59 26 28 0 40 7 60 33 15 19 26 39 26 45 0 17 37 52 55 52 9 0 15-9 15-25zm-2351-225c10 0 21-7 25-15 3-8 10-15 16-15 5 0 10 7 10 15s5 15 12 15c6 0 22 10 35 22s23 16 23 10c0-13-39-52-52-52-5 0-6-4-3-10 3-5 21-10 38-11 31 0 31-1 8-10s-24-11-8-27c11-10 34-17 62-17 43 0 56-7 35-20-18-11-10-25 24-41 39-19 66-60 66-102 0-39-20-53-21-15 0 27-1 27-17-10-19-43-50-56-88-38-38 17-47 14-40-15 5-19 2-30-10-39-21-15-12-45 16-52 21-6 21-6-1-21-11-8-39-15-60-16-30 0-39-5-39-18 0-10 5-18 10-18 6 0 10-8 10-18 0-20 24-45 53-55 23-8 22-17-9-52-17-20-27-26-30-17-3 6-10 9-16 6-5-4-5 3 2 16 16 30 8 34-29 15l-32-16 13 23c7 13 19 30 26 39 10 13 10 22-5 50-10 19-21 36-25 37-5 2-8 10-8 18 0 17-22 18-39 2-10-11-10-8 0 15 17 38 4 45-25 14-14-15-30-27-36-27s-4 7 5 16c10 11 13 20 7 26-15 15-52-1-52-23 0-21-4-22-35-10-19 8-19 8 3 15 12 4 22 12 22 18 0 5-7 8-14 5-10-4-13-1-10 7s0 17-7 22c-7 4-15 2-17-4-7-22-30-12-37 16l-7 27-18-22c-18-23-47-33-34-12 10 17-16 28-51 22-29-6-29-5 17 33 47 40 60 58 33 48-9-4-15 0-15 10 0 18 40 31 70 23 14-4 20 0 20 13 0 26 24 42 53 35 28-7 44 9 28 29-7 9-7 22 1 44 11 28 10 33-7 46-16 12-24 12-52-2-40-19-43-55-5-60 32-5 25-37-8-36-13 1-32-8-42-20-13-16-17-18-18-5 0 8 7 24 15 35 8 10 15 22 15 27 0 11-38 9-45-3-3-5-10-10-16-10-5 0 0 9 11 20s24 20 28 20 25 21 47 46c32 39 40 44 49 32 20-27 50-30 61-6 6 12 21 25 35 29s19 7 13 8c-22 2-14 19 10 23 14 2 25-3 29-14 4-10 16-18 27-18zm1387-114 7-38-33 7c-32 7-33 7-26-21 10-39 24-53 36-34 5 8 12 11 16 8 3-4-1-15-10-24-12-12-15-25-10-47 6-28 5-29-17-24-13 4-33 7-45 7-28 0-50 20-58 53-6 23-3 27 16 27 17 0 31 15 54 53 17 29 34 61 38 71 9 26 23 10 32-38zm986-13c14-12 34-16 82-14 40 1 67-2 71-9 5-8 31-11 72-8 55 2 67 0 79-16 17-24 18-56 2-91-10-22-17-25-59-25-85 0-147-19-171-51-45-61-88-23-88 77 0 24-5 44-10 44-16 0-60 47-60 64 0 19 27 46 47 46 9 0 25-7 35-17zm-1430-241c2-19 10-28 26-30 25-4 30 16 10 37-11 11-10 13 5 7 10-3 35-6 55-7l37-1-32-13c-23-11-30-19-26-33 4-18 65-52 94-52 10-1 8-4-4-11-14-8-23-7-36 5-26 24-38 20-39-14-1-33 1-34 29-20 25 14 38-14 20-42-7-11-9-28-6-38 5-15 2-17-15-13-11 3-20 0-20-6s12-11 26-11c25 0 26-2 20-40-7-45 11-63 40-39 14 12 14 14-2 26-17 13-17 14 4 29 19 13 21 19 11 30-18 22 3 38 38 30l28-8-25-19-25-19 23-6c27-8 29-24 3-31-11-3-22-16-25-29-4-15-11-21-21-18-14 6-19-5-16-34 1-8-7-16-18-19-23-6-27-18-10-29 8-4 7-9-2-14-10-7-10-11 1-24 7-9 10-20 6-23-4-4-11-1-16 7-10 16-11 15-29-15-12-20-12-20-6 1 3 13-2 27-14 38-18 16-20 16-35-6-13-17-19-20-25-10-5 9-17 11-34 6-17-4-27-2-27 5 0 6 3 11 8 12 4 0 18 2 32 5 14 2 44 6 68 10 45 7 53 17 25 33-16 9-16 10 5 11 22 0 30 14 12 25-5 3-7 12-3 20 3 8 1 15-3 15-15-1-44-26-44-39 0-6-4-11-9-11s-8 18-7 40c0 33 4 40 21 40 12 0 26-5 33-12 9-9 12-8 12 5 0 9-4 17-10 17-5 0-12 11-16 25-5 21-10 24-33 19-34-9-37-12-23-26 10-10 8-16-10-30-19-15-21-19-8-27 12-9 11-14-12-38-14-15-28-36-30-47-1-10-14-23-27-28-23-8-23-8-7 17 9 13 16 30 16 37s9 19 20 26c24 15 26 38 4 46-8 3-12 11-9 17 4 6 13 8 21 5 18-7 30 22 16 36-8 8-16 7-28-2-14-13-16-11-12 20 2 27-1 35-14 38-12 2-19-5-24-22-9-38-22-32-22 12-1 69-17 132-33 132-5 0-6 12-3 27 6 23 4 25-15 20-11-3-21-1-21 4s-8 9-17 9c-17 1-16 2 1 15 10 8 37 14 60 14 22-1 52 3 66 9 34 13 48 5 52-26zm-2792 25c0-15-36-104-44-109-10-6-14-44-15-140-1-34-3-38-27-36-14 2-42 16-61 33-43 37-39 64 18 129 21 24 39 53 39 63 0 33 29 63 61 63 16 0 29-1 29-3zm-570-119c44-17 76-22 163-22 107-1 109-2 133-29 27-31 26-46-8-103-18-31-24-34-66-34-46 0-82-20-82-47 0-7-5-13-10-13-12 0-143 99-148 112-8 18-63 38-105 38-34 0-49 6-70 28-29 30-35 60-15 80 21 21 146 15 208-10zm2745-50c-5-21-4-28 4-24 6 4 9 10 7 14s6 7 18 7c18 0 21-5 18-27-4-24-8-27-28-22-13 3-24 3-24-1 0-12 29-35 45-35 10 0 13-5 9-12-5-8-2-9 10-5 10 4 22 7 27 7s9 7 9 16c0 11-6 14-17 10-15-5-15-3 2 9 17 14 21 14 34 0 13-13 13-19 3-35-10-17-10-20 5-20 14 0 13-3-5-23-28-30-28-39 1-35 13 2 21-2 20-9-3-14 32-27 48-17 9 5 8 10-3 18-21 16-31 45-35 100-1 27-8 53-13 56-7 4 2 20 21 41l32 34-7-30c-19-78-19-85-2-85 9 0 19 7 22 15 7 18 24 10 24-11 0-8-9-14-19-14-11 0-23-5-26-10-10-17 5-70 21-70 8 0 14-10 14-25 0-25-27-46-65-50-11-1-23-3-27-4-5 0-8-8-8-16s-7-15-15-15-15 6-15 14 7 16 15 20c8 3 15 12 15 20 0 7-7 16-15 20-8 3-15 10-15 16 0 19-29 42-55 44-14 0-25 7-25 14 0 20-18 14-25-9-5-14 0-26 16-40 24-21 39-24 39-9 0 6 9 10 20 10 18 0 19-2 8-20-11-17-10-22 2-30 13-8 13-11-2-27-11-10-18-13-18-5 0 20-41 61-56 55-8-3-14 1-14 8 0 10-3 10-12 1-19-19-31-14-25 9 4 15 2 19-8 15-9-3-12 0-9 8 3 7-2 26-11 42-17 34-19 44-5 44 6 0 10-11 10-25 0-33 28-45 46-20 19 25 18 45-2 45-13 0-15 6-9 28 3 15 13 31 21 35 8 5 12 12 9 18-8 13 4 31 16 23 6-3 7-19 4-36zm916-40c10-13 18-30 19-38 0-24 21-40 51-40 23 0 28-5 31-27 2-20 9-29 26-31 40-6 54 4 40 27-15 24-7 35 20 27 18-6 19-10 9-37-8-21-21-32-39-36-16-3-28-10-28-15 0-6 8-7 17-4 11 5 23 0 33-15 14-18 20-19 36-9 17 10 24 8 53-19 18-17 28-31 22-31s-11-4-11-10c0-16 21-12 43 8 19 17 20 16 14-10-4-14-10-33-13-42-4-10 1-19 14-23 21-9 75-55 107-93 18-21 18-23 2-17-13 5-21 0-29-18-13-29-45-33-64-7-11 15-9 20 14 39l27 22-27 1c-33 0-98-54-98-81 0-20 40-36 59-24 16 9 31-3 25-20-4-10-15-12-34-9-23 5-31 1-45-20-21-32-38-33-64-5l-20 22-48-36c-27-19-59-35-73-34-14 0-33-3-42-7-14-6-20-1-28 20-9 24-8 31 7 42s16 14 3 22c-12 8-12 14 3 46 22 44 18 50-15 25-13-11-37-23-52-27-22-5-28-3-33 15-3 11-9 21-14 21-21 0-6 22 26 37 19 9 35 23 35 30 0 15-26 18-35 3-4-6-13-5-24 2-18 11-18 13 2 55 12 24 26 43 33 43 16 0 30 60 16 69-19 12-18 46 2 62 15 12 27 14 50 8 23-7 34-5 46 7 14 15 13 16-7 9-19-5-23-2-23 15 0 11-11 32-25 46-25 25-33 40-15 29 6-3 10 0 10 8s-7 18-16 21c-8 3-12 10-9 16 9 15 15 13 36-12zm-1028-121c3-8-3-20-14-28-22-16-26-49-5-49 10 0 12-7 8-22-5-22-4-22 14-7 10 9 36 24 57 34l37 17 40-41c22-22 45-41 51-41 8 0 7-5-2-16-11-13-10-17 4-26 10-5 15-14 11-20-4-7-9-6-14 1-9 15-37 4-45-16-7-21 15-35 32-21 11 8 12 7 7-7-5-13-14-15-36-11-26 5-29 3-23-14 7-22-10-28-18-7-4 8-11 5-24-10-32-38-108-74-142-67-24 5-36 1-60-22-23-22-28-31-19-41 19-24-8-41-30-19-15 15-15 18-2 29 9 7 22 27 29 45 10 25 17 30 26 22 10-8 15-6 20 10 7 20 7 21 22 3 13-17 14-16 8 10-7 33 1 34 25 5 16-20 20-21 35-8 10 8 26 14 36 12 22-4 30 9 19 28-7 12-12 12-22 2-18-18-68-16-68 3 0 9-7 18-16 22-13 5-15 14-10 44 4 24 2 39-4 39-5 0-10-6-10-14s-9-18-20-21c-24-8-25-22-3-47 17-19 12-22-24-12-13 4-23 13-23 20 0 8-12 15-27 16-56 4-68 5-85 13-10 4-18 16-18 26s-6 19-12 19c-9 0-8 3 2 9 18 12 30 5 30-20s25-35 45-19c21 17 20 20-20 63-26 28-30 37-17 37 9 0 27-15 38-33 12-19 28-34 35-34 8 0 30-3 50-6 32-7 36-5 46 20 11 28 11 28 18 6 8-26 45-32 45-8 0 8-4 15-9 15-10 0-27 42-35 87-5 29-2 34 19 39 14 3 25 10 25 15 0 14 17 11 23-4zm-1225-84c-3-10 47-89 62-98 24-15 10-66-28-104-33-33-36-40-23-49 14-10 14-11-1-11-18-1-33 12-66 58-17 22-19 23-55 8-45-20-53-57-11-57 14 0 34-5 45-10 21-12 26-46 7-53-10-3-10-8 1-21 13-15 12-20-5-37-26-26-53-16-46 17 3 17 0 24-12 24-22 0-31-26-16-45 6-8 9-18 6-23-6-11-64-3-72 9-3 5-14 9-25 9s-33 10-49 22c-26 19-29 27-24 54 4 22 0 40-12 59l-18 28 22-14c18-11 27-11 54 0 18 7 42 14 53 15 11 2 27 16 37 32 22 36 22 44 3 44-22 0-18 23 5 38 19 12 28 42 13 42-5 0-9 11-9 25-2 22 1 24 23 19 16-4 28-2 34 7 7 12 12 12 30 1 17-11 24-11 42 2 24 17 38 20 35 9zm2992-113c4-8 14-27 21-43 8-17 24-30 42-35 41-11 46-42 7-42-38 0-60-9-60-25 0-8 9-11 24-8 18 4 27-1 37-19 6-12 24-37 38-54s34-45 43-63c18-32 22-35 71-45 32-7 39-46 8-46-10 0-32-13-49-30-34-32-60-37-94-19-27 15-126 20-133 8-10-15-65-10-71 6-4 8 1 31 10 50 10 19 15 39 12 44-4 5-24 7-47 4-68-9-72 31-8 84 15 13 30 37 34 52 3 16 18 42 32 57 22 24 23 28 9 36-9 5-16 19-16 32 0 31-9 37-31 23-12-8-22-8-28-2-16 16-2 49 27 66 24 13 32 13 71-1 24-8 47-22 51-30zm-2835-64c39-16 41-23 22-51-9-11-16-14-21-7-3 6-2 13 4 17 13 8 3 25-16 25-8 0-14-7-14-16 0-8-3-13-7-11-5 3-13-1-20-8-9-10-5-14 18-19 33-6 68-41 69-67 0-9 7-19 15-23 8-3 15-14 15-25 0-21 28-37 42-23 5 5-4 23-22 42-20 22-29 39-25 51 4 11 2 19-4 19s-11 9-11 20 2 20 5 20 14-9 25-20 27-20 35-20 15-4 15-10c0-5-8-10-18-10s-22-3-25-6c-11-11 33-64 54-64 10 0 19-3 19-7 0-5 9-19 19-33 19-24 20-24 40-6 21 19 21 19 21-2 0-11 5-24 10-27 17-10 24 26 10 49-8 11-20 33-28 49-14 29-27 34-38 15-4-6 0-16 9-23 16-11 13-25-4-25-12 0-69 51-69 61 0 5 16 9 35 9 29 0 35 4 35 21 0 18 4 20 25 15 29-7 32-1 10 21-13 12-13 18-3 31 12 13 13 13 16-6 3-18 8-21 28-16 14 4 24 2 24-4s3-17 6-26c4-10 1-16-10-16-10 0-13-6-10-15 4-9 0-15-10-15-20 0-20-19-1-44 12-16 17-17 30-6 9 7 13 21 10 31-8 26 15 36 32 13 8-10 21-18 30-16s12-1 8-8c-4-6 2-20 14-31s21-17 21-14 9 1 21-5c31-17 18-21-27-8-21 6-43 10-49 9-5-2-21-4-35-5-14 0-25-7-24-13 1-7 2-20 3-28 0-9 9-15 18-13 10 2 19-4 21-14 3-15-7-17-65-20-37-2-81 1-97 6-21 6-30 5-37-5-25-40 7-57 58-29 37 20 37 20 58 0 27-26 50-25 69 1 16 23 38 17 34-9-3-19-22-42-35-42-5 0-20-9-35-21-27-22-28-59-1-59 11 0 11-4 3-20-14-26-46-26-53 1-5 17-9 19-25 10-13-7-22-7-30 1-17 17-14 39 8 68 11 14 20 28 20 33 0 11-38 9-61-4-20-10-20-11-3-30 10-11 12-19 6-19-7 0-12-8-13-17 0-12-4-8-11 10-11 32-28 35-35 7-3-11-10-17-15-13-6 3-8 0-6-8 3-8 15-13 29-11 17 2 20 0 11-6-8-5-12-15-11-23s-2-22-6-33c-5-11-3-26 4-37 12-20 6-24-29-20-17 2-80 30-80 35 0 2 6 9 14 15 11 9 18 8 31-5 15-16 18-16 35 2 14 14 17 23 10 34-8 12-12 12-18 2-12-18-37 12-26 30 4 7-9-2-27-19-19-18-40-33-47-33-18 0-15-17 5-24 26-10 0-28-31-20-29 7-34 19-10 28 13 5 14 9 4 21-8 10-17 12-24 6-14-11-41 24-31 39 8 13 45 13 45 0 0-5 10-10 23-10s28-5 35-12c9-9 12-7 12 9 0 12 8 24 18 27 9 3 26 19 36 35 15 21 27 28 49 27s30 4 33 19c4 28-15 48-32 34-8-6-14-18-14-26 0-12-3-11-16 2-33 32-60 44-96 41-39-3-47 6-25 28 17 17 96 10 119-10 11-11 18-12 23-4 12 19-57 70-94 70-10 0-21 7-25 15-3 8-16 15-30 15-19 0-25 6-28 30-3 17-1 30 3 30s5 9 2 20c-3 12 0 20 6 20 7 0 9 5 6 10-4 6-8 28-10 50-3 29 1 42 13 50 23 13 27 12 67-4zm1572-28c-2-39 0-43 21-41 17 2 22-2 22-22 0-16-6-25-15-25-20 0-19-34 1-51 17-14 31-2 75 66 13 20 19 25 19 13 0-28-22-67-47-84-22-14-23-17-10-32 8-9 17-26 19-37 2-12 13-21 26-23l22-3-21-27c-12-16-34-29-52-32-31-5-32-7-29-48 3-32 0-43-10-41-27 6-85-22-98-46-10-18-17-22-24-15-8 8-8 13 0 18 5 4 20 21 32 39 16 23 27 30 43 26 28-8 40 13 33 59-6 33-4 37 17 40 20 2 24 10 27 44 4 52-18 65-47 29-22-28-41-33-41-9 0 9 9 18 20 21 29 8 35 41 12 66-14 15-19 30-15 50 3 15 0 34-8 43-11 13-10 17 4 25 9 6 17 17 17 24 0 8 2 15 4 15 3 0 4-19 3-42zm-2437-388c12-7 12-16 3-51-14-54-9-67 30-71 27-2 33-8 35-30 3-24 0-28-22-28s-26-5-26-29c0-17-4-32-10-36-12-8-42 39-39 62 2 10-9 31-24 47-34 37-34 68 1 112 30 37 31 38 52 24zm1794-40c30-46 33-65 9-78-11-7-14-16-9-28 7-17 9-17 19-3 7 8 20 18 30 22 22 8 24 57 1 57-10 0-14 7-12 22 5 32 26 34 30 2 4-36 26-42 34-10 3 14 10 26 14 26 5 0 5-14 0-31-5-18-7-36-4-40 3-5-6-13-20-19-14-5-26-16-26-25 0-8-4-15-10-15-5 0-10-13-10-29 0-45-10-61-36-61-19 0-24-5-24-26 0-22-4-25-29-22-18 1-37-5-50-16-18-16-24-17-34-6-10 10-9 11 2 5 20-11 30 13 17 41-6 13-14 24-18 24-14 0-8 35 11 59 16 21 20 22 40 10 14-9 20-21 17-32-5-21 16-32 42-22 16 6 16 7-1 20-15 11-16 13-2 19 20 7 20 36 0 36-12 0-13 4-5 19 13 26 13 28-6 35-9 4-22 2-29-4-19-16-28 31-10 50 13 12 19 12 35 2 30-18 31-15 9 23-29 48-8 44 25-5zm209-92c-4-7-6-22-5-33 2-20-26-42-90-72-31-14-36-34-12-54 13-11 17-10 25 4 6 9 22 17 36 17 15 0 36 8 47 18 20 17 20 17 5-8-9-14-26-26-39-28-17-3-21-9-17-28 2-13 0-24-4-24-5 0-9 5-9 10 0 15-30 12-36-4-3-8-15-11-30-8-13 2-24 0-24-6 0-5-9-12-19-15-10-2-37-33-59-68-32-51-42-60-48-46-4 11 0 25 10 36 9 10 16 25 16 34s8 21 18 26c23 14 6 14-20 0-16-8-22-8-29 2-6 10 2 19 28 31 20 10 39 15 44 13 4-3 17 14 27 38 19 43 36 62 57 62 6 0 18 17 28 38 14 28 24 36 37 32 11-4 23 3 34 20 16 25 45 37 29 13zm527-27c0-11 9-21 21-24 18-5 20-11 14-44-5-32-2-42 16-58 12-11 28-35 36-52 7-18 19-33 27-33 13 0 30-34 27-54-1-4 4-14 10-22s8-14 3-14-18 17-29 37c-24 44-39 47-43 9-4-34-23-56-48-56-16 0-16 1-1 18 10 10 17 28 17 40 0 11 5 24 10 27 17 11 11 32-22 73-19 23-42 41-53 41-11 1-15-3-10-7 6-4 11-31 13-59 2-43 0-53-13-53-18 0-45 23-45 39 0 5 9 13 21 16 14 5 18 12 14 23-18 43-16 49 19 66 42 20 47 43 11 52-40 10-80-9-83-39-5-41-34-31-46 15-5 21-2 30 14 38 16 9 22 8 26-5 5-12 12-10 40 15 40 35 54 38 54 11zm-862-204c30-67 34-109 17-151-9-20-20-34-24-31-10 6-3 43 9 50 10 6 1 45-10 45-4 0-15-34-25-75-11-46-22-74-29-72-6 3-10 10-8 16 1 6-11 11-28 11-23 0-33 7-45 30-14 27-14 29 2 23 10-4 14-2 10 4-6 9 24 59 45 73 4 3 14 19 22 35 11 21 12 32 4 42-7 9-7 17 2 28 21 25 38 17 58-28zm203-24c6-41 5-73-2-73-5 0-9 6-9 13 0 6-7 3-16-8-8-11-12-25-10-32 3-7-4-17-14-23-11-6-20-7-20-3 0 9-20-19-20-29 0-3 9-4 20-1 23 6 27-15 8-36-11-10-10-12 5-9 10 1 28 19 40 37 12 19 16 32 10 28s-14-3-18 2c-3 6 4 15 16 21 24 13 22 15 39-28 10-25 10-36 1-45-15-15-14-28 2-26 26 3 37-2 37-16 0-16-16-20-24-6-3 5-35 9-70 9-63 0-64 0-70-30-8-42 2-48 26-15s38 35 38 5c-1-27-44-62-66-54-13 5-19 26-15 50 1 4-10 23-24 42-28 37-23 43 13 18 25-17 29-10 7 12-13 13-12 21 10 65 18 34 31 49 45 49 13 0 20 7 20 20 0 11 5 20 11 20 5 0 9 8 8 18-2 26 0 32 11 32 6 0 10-3 11-7zm543-564c-14-16-15-23-4-49 7-16 10-37 6-45-4-11 3-19 21-26 23-9 24-11 10-27-9-11-13-29-10-48 5-29 2-32-27-36-26-4-34-1-38 14-6 24-22 23-22-2 0-11-5-20-11-20-8 0-9 15-4 46 5 33 3 44-5 39-7-5-9 2-3 22 4 15 7 45 6 67 0 25 2 33 8 25 7-11 14-7 34 16 13 17 24 38 25 49 0 15 3 16 15 6 14-12 14-15-1-31zm-2096-61c5-7 18-37 27-66 10-29 21-55 26-58s16-21 24-40c17-40 31-43 47-9 14 31 26 32 38 3 5-13 19-35 31-49 17-21 19-30 10-47-13-25-14-65-2-77 5-6 11-23 13-40 2-22 11-33 32-43 16-7 29-11 30-10 1 2 7 13 14 25 6 13 12 31 12 41 0 14 7 17 39 14 21-2 42 1 45 7 12 19 26 12 26-14 0-16-6-25-15-25-21 0-19-14 6-36 13-12 19-27 16-42s2-26 13-32c20-11 17-42-5-60-10-8-19-8-35 0-15 8-25 8-34 1-16-14-42-5-79 26-37 30-61 31-51 1 7-23 73-98 85-98 4 0 10 12 13 26 8 29 25 28 37-3 6-17 0-27-32-53-32-25-43-29-54-20s-24 3-63-34c-27-25-65-52-85-61-36-15-62-46-50-59 10-10-28-45-43-39-18 7-18 48 0 81 8 15 17 44 21 64 3 21 17 51 31 68 22 26 25 36 19 68-7 40-34 72-60 72-18 0-37 43-28 66 4 12 1 15-13 12-11-2-20-13-22-26-2-12-9-22-15-22-26 0-39 20-43 61-2 24-5 66-8 92-2 26-11 56-21 67-20 22-44 85-45 118 0 16-9 26-30 33-32 12-36 19-19 36 8 8 23 8 57-2 54-17 62-12 91 51 22 46 32 52 49 32zm-397-230c11-11 19-18 19-14s6 4 13-1c6-4 17-8 22-9 6 0 16-2 23-2 6-1 12-11 12-21s7-21 15-25c12-4 14-15 9-44-4-25-2-42 5-46 31-20-17-92-68-102-27-6-32-3-42 22-6 16-13 43-14 60-2 17-15 57-29 89-21 44-24 60-15 71 6 8 8 14 4 14s-2 7 5 15c16 20 19 19 41-7zm1279-668c10-5 21-23 25-40 5-22 12-30 28-30 29-1 57-23 57-45 0-9-9-30-21-46-26-37-32-103-15-154 16-45 41-58 73-38 12 8 31 12 42 8 32-10 34 13 3 52-29 37-56 132-45 159 6 16 44 25 58 14 7-6 24-6 41-1 23 6 41 3 79-15 27-13 53-24 59-24 15 0 46-32 46-48 0-9-6-23-14-31-27-30-54-89-58-122-2-27-9-36-33-44-19-6-31-19-35-35-4-18-16-27-45-36-40-11-74-4-128 27-14 8-23 7-35-5-34-30-70-37-115-21-23 8-43 18-45 24-2 5-25 0-53-10-63-24-89-12-89 42 0 28 9 45 38 77 43 47 71 53 102 22 12-12 25-18 30-15 14 8 13 62-1 71-7 4-9 23-5 53 4 25 7 52 8 59s8 10 17 8c67-18 67-18 63 19-5 39-24 46-53 19-16-14-18-14-29 6s-7 81 6 102c7 11 22 10 44-2z"/><path d="m3120 4432c0-10-5-23-11-29-9-9-9-24 0-58 11-44 10-48-10-66-26-23-29-23-55-4-14 9-30 12-48 7l-26-7 24-26c18-19 21-30 14-43-7-12-6-22 3-32 10-13 10-17-2-25-8-5-20-9-26-9-7 0-13-6-13-14 0-11 6-12 38-1 37 13 57 45 28 45-19 0-20 5-5 31 5 11 15 17 20 13 6-3 13 3 16 15 7 26 28 27 50 2 9-11 22-17 29-14s18 1 25-3c9-5 7-11-6-21-26-18-42-16-48 7-6 24-23 26-31 4-4-10 1-25 10-36 10-10 14-21 11-25-4-3-7-1-7 5 0 7-5 12-11 12-17 0-6-33 13-36 9-1 27 9 39 22s28 24 36 24c7 0 13 6 13 14s10 16 23 18c12 2 22 10 22 18s-10 16-22 18c-25 4-32 22-9 22s28 17 11 33c-19 19-20 34-2 18 11-8 18-7 31 7 18 21 12 32-18 32-20 0-20 0 2 16 12 8 22 19 22 24 0 11-95 60-116 60-8 0-14-8-14-18z"/><path d="m5677 2939c-16-26-29-82-32-139-1-19-5-64-9-100l-8-65 41-47c23-25 41-52 41-59 0-8-9-36-19-64-109-284-109-290 15-330 74-24 83-33 104-114 15-58 49-91 94-91 30 0 42 8 83 56 26 31 69 67 95 80 55 28 65 43 79 121 6 32 20 78 31 103 31 67 54 120 74 168 11 27 29 49 46 58 37 19 50 54 37 93-8 22-6 41 6 77 19 56 15 92-19 168-48 107-108 133-191 81-32-19-54-24-105-25-36 0-81-5-100-11s-64-14-100-19c-74-9-99 1-130 52l-18 30z"/><path d="m4453 1813c-8-21-22-42-30-49-14-10-14-15 1-50 17-37 19-39 65-39 55 0 77 14 86 55 3 16 13 34 21 41 13 10 12 15-7 35s-29 23-61 18c-31-5-38-4-38 10 0 29-21 17-37-21z"/></g></svg>