<svg enable-background="new 0 0 1200 1200" viewBox="0 0 1200 1200" xmlns="http://www.w3.org/2000/svg"><path d="m870.5 236.9h-562.6c-41.6 0-75.3 33.7-75.3 75.3v562.6c0 41.6 33.7 75.3 75.3 75.3h562.6c41.6 0 75.3-33.7 75.3-75.3v-562.6c0-41.6-33.7-75.3-75.3-75.3z" fill="#00aeef"/><g fill="#231f20"><path d="m349.4 804.1h15.1v5.7c2.9-3.6 6.6-6.7 13.1-6.7 10.3 0 19.1 8.5 19.1 22.3v.2c0 14-8.8 22.6-19.1 22.6-6.5 0-10.4-2.9-13.2-6.2v18h-15.1v-55.9zm32.6 21.6v-.2c0-5.7-4-9.8-8.8-9.8-4.9 0-8.8 4.1-8.8 9.8v.2c0 5.7 3.9 9.8 8.8 9.8 4.8 0 8.8-3.9 8.8-9.8z"/><path d="m401.2 834.9v-.2c0-9 6.8-13.6 16.9-13.6 4 0 7.9.7 10.4 1.7v-.7c0-4.5-2.8-7.1-8.6-7.1-4.5 0-8.1 1-12 2.4l-3.1-10.6c4.9-2 10-3.3 17.5-3.3 7.7 0 13 1.8 16.4 5.3 3.3 3.2 4.6 7.7 4.6 13.7v24.8h-14.9v-4.5c-3 3.3-7.1 5.5-12.8 5.5-8.1-.1-14.4-4.9-14.4-13.4zm27.5-3.3v-2c-1.6-.6-3.7-1.1-6-1.1-4.4 0-6.9 2.1-6.9 5.3v.2c0 2.9 2.2 4.7 5.3 4.7 4.5 0 7.6-2.8 7.6-7.1z"/><path d="m451.1 804.1h15.1v6.1c2.8-3.6 6.8-7 12.9-7 9.2 0 14.7 6.1 14.7 15.9v28.2h-15.1v-23.4c0-4.8-2.5-7.3-6.1-7.3-3.7 0-6.4 2.6-6.4 7.3v23.4h-15.1z"/><path d="m500 825.9v-.2c0-14 8.8-22.6 19-22.6 6.5 0 10.4 2.9 13.2 6.2v-20.3h15.1v58.2h-15.1v-5.7c-2.9 3.6-6.6 6.7-13.1 6.7-10.3 0-19.1-8.5-19.1-22.3zm32.5-.2v-.2c0-5.7-3.9-9.8-8.8-9.8s-8.8 4.1-8.8 9.8v.2c0 5.7 4 9.8 8.8 9.8 4.9 0 8.8-4 8.8-9.8z"/><path d="m553.8 825.9v-.2c0-12.6 9-22.6 21.8-22.6 14.8 0 21.7 10.9 21.7 23.6 0 1 0 2.1-.1 3.1h-28.9c1.2 4.7 4.6 7.1 9.3 7.1 3.7 0 6.5-1.4 9.6-4.4l8.4 6.9c-4.1 5.3-10.1 8.8-18.7 8.8-13.6.1-23.1-9-23.1-22.3zm29.3-3.7c-.6-4.8-3.4-7.8-7.6-7.8-4 0-6.7 3-7.5 7.8z"/><path d="m603.7 804.1h15.1v5.9c2.8-3.6 6.8-6.9 12.8-6.9 5.7 0 10.1 2.6 12.4 7 3.7-4.3 8.1-7 14.4-7 9.2 0 14.7 5.7 14.7 15.8v28.3h-15.1v-23.4c0-4.7-2.3-7.3-5.9-7.3s-6.2 2.6-6.2 7.3v23.4h-14.9v-23.4c0-4.7-2.4-7.3-6-7.3s-6.1 2.6-6.1 7.3v23.4h-15.1v-43.1z"/><path d="m681.2 789.1h15.7v11.2h-15.7zm.3 15h15.1v43.1h-15.1z"/><path d="m703.4 825.9v-.2c0-12.2 9.4-22.5 23-22.5 8.8 0 14.7 3.8 18.4 9.6l-10.2 7.7c-2.2-2.8-4.5-4.5-8.1-4.5-4.9 0-8.5 4.4-8.5 9.6v.2c0 5.6 3.5 9.8 8.6 9.8 3.7 0 6-1.7 8.3-4.5l10.1 7.3c-4 5.9-9.7 9.9-19.1 9.9-13 0-22.5-10.2-22.5-22.4z"/><path d="m749.9 831.7h15.7v15.5h-15.7z"/><path d="m773.5 789.1h15.1v58.2h-15.1z"/><path d="m793.8 804.1h15.9l8.3 25.2 8.4-25.2h15.6l-17.2 43.4h-13.8z"/><path d="m777.4 496.6-34.3-12.6c-3.9-12.9-9.5-25.1-16.4-36.4l5.6-12.1c6.2-13.4 3.4-29.2-7-39.6s-26.3-13.2-39.6-7l-12.1 5.6c-11.3-6.9-23.4-12.5-36.4-16.4l-12.6-34.3c-5.1-13.8-18.3-23-33-23s-27.9 9.2-33 23l-12.6 34.3c-12.9 3.9-25.1 9.5-36.4 16.4l-12.1-5.6c-13.4-6.2-29.2-3.4-39.6 7s-13.2 26.3-7 39.6l5.6 12.1c-6.9 11.3-12.5 23.4-16.4 36.4l-34.1 12.6c-13.8 5.1-23 18.3-23 33s9.2 27.9 23 33l34.3 12.6c3.9 12.9 9.5 25.1 16.4 36.4l-5.6 12.1c-6.2 13.4-3.4 29.2 7 39.6 6.7 6.7 15.7 10.3 24.9 10.3 5 0 10-1.1 14.8-3.3l12.1-5.6c11.3 6.9 23.4 12.5 36.4 16.4l12.6 34.3c5.1 13.8 18.3 23 33 23s27.9-9.2 33-23l12.6-34.3c12.9-3.9 25.1-9.5 36.4-16.4l12.1 5.6c4.7 2.2 9.8 3.3 14.8 3.3 9.1 0 18.1-3.6 24.9-10.3 10.4-10.4 13.2-26.3 7-39.6l-5.6-12.1c6.9-11.3 12.5-23.4 16.4-36.4l34.2-12.6c13.8-5.1 23-18.3 23-33-.3-14.7-9.5-27.9-23.3-33z"/></g><path d="m651.7 474.5c-20.3 0-37.4 13.4-43 31.8-7-3.9-14.2-5.9-21.7-5.8-9.2.1-17.3 3.3-23.7 7-5.3-19-22.7-33-43.4-33-24.9 0-45 20.2-45 45 0 24.9 20.2 45 45 45 23.1 0 42-17.3 44.7-39.7 5.1-4.1 13.2-9.2 22.6-9.3 6.6-.1 13.2 2.5 19.6 7.7 1.9 23.1 21.2 41.3 44.8 41.3 24.9 0 45-20.2 45-45 .2-24.9-20-45-44.9-45z" fill="#ee2a7b"/></svg>