<svg xmlns="http://www.w3.org/2000/svg" viewBox="0 0 864.61 632.07"><defs><style>.cls-1{fill:none;stroke:#000;stroke-miterlimit:10;stroke-width:33px;}</style></defs><path class="cls-1" d="M8.78,608.23l17.15-12.39A630.26,630.26,0,0,0,277.17,196.34l2.62-14.6,5.12-8.13A252.8,252.8,0,0,1,595.72,74.75L659.12,101a44.25,44.25,0,0,0,53.11-15.37l11.19-15.86L707,57.69a77,77,0,0,1-23-27.26L676.4,15.56a.39.39,0,0,1,.38-.56l40.66,4.11A54.33,54.33,0,0,1,741,27.23L773.88,48H787a55.68,55.68,0,0,1,38.22,15.19L842,79.07a24.2,24.2,0,0,1,3.52,31h0a24.2,24.2,0,0,1-20.13,10.77H786.72l-31.26,17.62-7.84,14.12A184.46,184.46,0,0,1,676,224.23l-14.88,8.28,19,77.83"/><path class="cls-1" d="M430.81,308.31a145.14,145.14,0,0,1-108.36-70.86"/><polyline class="cls-1" points="409.27 341.88 381.16 473.63 513.81 622.07"/><path class="cls-1" d="M446.7,175.32h0a113,113,0,0,1,58.57,86.23h0a181.2,181.2,0,0,1-12.81,91.15L445.78,464.22l92.36,103.32"/><line class="cls-1" x1="532.64" y1="265.25" x2="591.53" y2="254.16"/><path class="cls-1" d="M632.59,166.3l-20.92,17.58A10.11,10.11,0,0,0,608.35,194l35.12,144.55"/></svg>