<svg enable-background="new 0 0 1440 900" viewBox="0 0 1440 900" xmlns="http://www.w3.org/2000/svg" xmlns:xlink="http://www.w3.org/1999/xlink"><clipPath id="a"><path d="m0 0h1440v900h-1440z"/></clipPath><g clip-path="url(#a)"><path clip-rule="evenodd" d="m0 0h1440v900h-1440z" fill="#f2f2f2" fill-rule="evenodd"/></g><g clip-path="url(#a)"><path d="m720 4v899zm0 0h-1v900h1z"/></g><g clip-path="url(#a)"><path d="m1440 450h-1440v1h1440z"/></g><g clip-path="url(#a)"><path d="m720 1c60.6 0 119.4 11.9 174.8 35.3 53.5 22.6 101.5 55 142.7 96.2s73.6 89.3 96.2 142.7c23.4 55.4 35.3 114.2 35.3 174.8s-11.9 119.4-35.3 174.8c-22.6 53.5-55 101.5-96.2 142.7s-89.3 73.6-142.7 96.2c-55.4 23.4-114.2 35.3-174.8 35.3s-119.4-11.9-174.8-35.3c-53.5-22.6-101.5-55-142.7-96.2s-73.6-89.3-96.2-142.7c-23.4-55.4-35.3-114.2-35.3-174.8s11.9-119.4 35.3-174.8c22.6-53.5 55-101.5 96.2-142.7s89.3-73.6 142.7-96.2c55.4-23.4 114.2-35.3 174.8-35.3m0-1c-248.5 0-450 201.5-450 450s201.5 450 450 450 450-201.5 450-450-201.5-450-450-450z"/></g><g clip-path="url(#a)"><path d="m1171-449c60.6 0 119.4 11.9 174.8 35.3 53.5 22.6 101.5 55 142.7 96.2s73.6 89.3 96.2 142.7c23.4 55.4 35.3 114.2 35.3 174.8s-11.9 119.4-35.3 174.8c-22.6 53.5-55 101.5-96.2 142.7s-89.3 73.6-142.7 96.2c-55.4 23.4-114.2 35.3-174.8 35.3s-119.4-11.9-174.8-35.3c-53.5-22.6-101.5-55-142.7-96.2s-73.6-89.3-96.2-142.7c-23.4-55.4-35.3-114.2-35.3-174.8s11.9-119.4 35.3-174.8c22.6-53.5 55-101.5 96.2-142.7s89.3-73.6 142.7-96.2c55.4-23.4 114.2-35.3 174.8-35.3m0-1c-248.5 0-450 201.5-450 450s201.5 450 450 450 450-201.5 450-450-201.5-450-450-450z"/></g><g clip-path="url(#a)"><path d="m271-449c60.6 0 119.4 11.9 174.8 35.3 53.5 22.6 101.5 55 142.7 96.2s73.6 89.3 96.2 142.7c23.4 55.4 35.3 114.2 35.3 174.8s-11.9 119.4-35.3 174.8c-22.6 53.5-55 101.5-96.2 142.7s-89.3 73.6-142.7 96.2c-55.4 23.4-114.2 35.3-174.8 35.3s-119.4-11.9-174.8-35.3c-53.5-22.6-101.5-55-142.7-96.2s-73.6-89.3-96.2-142.7c-23.4-55.4-35.3-114.2-35.3-174.8s11.9-119.4 35.3-174.8c22.6-53.5 55-101.5 96.2-142.7s89.3-73.6 142.7-96.2c55.4-23.4 114.2-35.3 174.8-35.3m0-1c-248.5 0-450 201.5-450 450s201.5 450 450 450 450-201.5 450-450-201.5-450-450-450z"/></g><g clip-path="url(#a)"><path d="m1171 451c60.6 0 119.4 11.9 174.8 35.3 53.5 22.6 101.5 55 142.7 96.2s73.6 89.3 96.2 142.7c23.4 55.4 35.3 114.2 35.3 174.8s-11.9 119.4-35.3 174.8c-22.6 53.5-55 101.5-96.2 142.7s-89.3 73.6-142.7 96.2c-55.4 23.4-114.2 35.3-174.8 35.3s-119.4-11.9-174.8-35.3c-53.5-22.6-101.5-55-142.7-96.2s-73.6-89.3-96.2-142.7c-23.4-55.4-35.3-114.2-35.3-174.8s11.9-119.4 35.3-174.8c22.6-53.5 55-101.5 96.2-142.7s89.3-73.6 142.7-96.2c55.4-23.4 114.2-35.3 174.8-35.3m0-1c-248.5 0-450 201.5-450 450s201.5 450 450 450 450-201.5 450-450-201.5-450-450-450z"/></g><g clip-path="url(#a)"><path d="m271 451c60.6 0 119.4 11.9 174.8 35.3 53.5 22.6 101.5 55 142.7 96.2s73.6 89.3 96.2 142.7c23.4 55.4 35.3 114.2 35.3 174.8s-11.9 119.4-35.3 174.8c-22.6 53.5-55 101.5-96.2 142.7s-89.3 73.6-142.7 96.2c-55.4 23.4-114.2 35.3-174.8 35.3s-119.4-11.9-174.8-35.3c-53.5-22.6-101.5-55-142.7-96.2s-73.6-89.3-96.2-142.7c-23.4-55.4-35.3-114.2-35.3-174.8s11.9-119.4 35.3-174.8c22.6-53.5 55-101.5 96.2-142.7s89.3-73.6 142.7-96.2c55.4-23.4 114.2-35.3 174.8-35.3m0-1c-248.5 0-450 201.5-450 450s201.5 450 450 450 450-201.5 450-450-201.5-450-450-450z"/></g><g clip-path="url(#a)"><path d="m-138.3-409-.7.7 1717.3 1717.3.7-.7z"/></g><g clip-path="url(#a)"><path d="m1578.3-409-1717.3 1717.3.7.7 1717.3-1717.3z"/></g></svg>